<?xml version="1.0" standalone="no"?>
<!DOCTYPE svg PUBLIC "-//W3C//DTD SVG 20010904//EN"
 "http://www.w3.org/TR/2001/REC-SVG-20010904/DTD/svg10.dtd">
<svg version="1.0" xmlns="http://www.w3.org/2000/svg"
 width="2048.000000pt" height="1025.000000pt" viewBox="0 0 2048.000000 1025.000000"
 preserveAspectRatio="xMidYMid meet">
<metadata>
Created by potrace 1.11, written by Peter Selinger 2001-2013
</metadata>
<g transform="translate(0.000000,1025.000000) scale(0.100000,-0.100000)"
fill="#000000" stroke="none">
<path d="M5 10236 c-2 -6 -3 -2157 -2 -4781 l2 -4770 57 -6 c108 -12 820 -13
896 -1 40 6 115 12 165 13 102 3 129 11 120 35 -5 14 -3 15 15 5 25 -13 35
-14 28 -2 -3 4 34 8 83 7 63 -1 87 -4 80 -12 -5 -7 -3 -11 6 -11 8 0 15 3 15
7 0 10 93 6 109 -4 9 -6 12 -5 8 1 -8 12 23 22 73 24 28 0 31 2 15 8 -17 7
-14 10 20 18 44 11 111 29 165 44 19 5 96 12 170 15 122 5 133 4 110 -10 l-25
-14 28 1 c30 2 36 21 11 35 -14 8 -14 10 -2 15 9 3 28 -3 43 -13 22 -14 34
-16 54 -9 14 6 29 16 33 22 6 9 8 9 8 -1 0 -7 4 -11 9 -7 17 10 105 13 130 4
16 -7 32 -5 54 6 35 17 40 18 32 6 -3 -5 0 -13 7 -17 7 -4 10 -4 6 1 -25 28
103 47 339 50 92 1 105 4 127 24 15 14 30 20 37 16 8 -5 10 -4 5 4 -9 13 50
11 73 -4 8 -4 82 -9 165 -11 186 -4 173 -4 189 -4 6 0 35 -3 64 -8 29 -5 59
-5 67 0 20 11 93 -1 107 -18 6 -8 19 -14 27 -14 12 0 13 3 4 12 -18 18 -14 32
5 17 11 -10 14 -10 9 -2 -9 16 8 17 37 2 11 -7 57 -13 102 -15 61 -2 90 -8
115 -22 31 -20 58 -19 71 1 12 17 94 21 110 5 18 -18 15 -18 178 -22 77 -2
128 0 120 5 -9 6 -10 9 -2 9 6 0 15 -5 19 -11 3 -6 19 -9 35 -7 19 3 28 1 26
-6 -2 -6 -11 -10 -20 -8 -8 1 -18 -1 -21 -6 -2 -4 6 -9 20 -10 13 -1 24 2 24
7 0 15 32 22 45 11 10 -8 15 -8 21 1 4 8 3 9 -4 5 -7 -4 -12 -3 -12 3 0 5 -8
12 -17 15 -10 3 -5 4 10 2 16 -2 26 1 24 7 -4 13 -44 19 -52 8 -6 -11 -85 18
-85 31 0 5 -13 7 -30 3 -16 -3 -37 -2 -47 4 -16 9 -16 10 4 11 31 0 37 15 7
18 -38 3 -70 22 -54 32 7 5 20 6 29 3 9 -2 0 5 -19 16 l-35 20 34 -6 c19 -3
36 -1 40 4 9 16 126 24 141 10 10 -9 11 -9 6 0 -5 10 9 12 61 10 38 -2 74 -7
81 -11 7 -4 12 -3 12 3 0 16 43 9 74 -12 22 -16 48 -20 129 -23 84 -2 104 -6
115 -21 12 -15 14 -15 9 -1 -8 23 65 28 168 12 44 -7 101 -16 128 -19 26 -4
45 -10 42 -16 -6 -9 30 -13 92 -9 17 1 40 -3 50 -8 10 -6 29 -12 43 -13 14 -2
30 -10 36 -18 8 -10 15 -11 31 -3 11 6 22 10 24 9 2 -1 -4 6 -13 16 -25 25
-22 30 14 25 28 -5 29 -4 13 9 -18 12 -18 13 3 13 13 0 37 -6 56 -14 27 -11
37 -11 62 0 l29 14 -37 -4 c-21 -3 -38 -1 -38 5 0 5 5 9 11 9 8 0 7 6 -2 16
-12 15 -11 16 11 9 14 -5 39 -9 55 -10 71 -5 155 -18 155 -25 0 -5 8 -6 19 -3
10 3 22 0 25 -6 4 -5 14 -7 22 -4 14 5 25 7 72 12 6 0 12 8 12 16 0 9 -6 12
-17 8 -11 -4 -14 -3 -9 5 8 14 -34 26 -84 25 -19 -1 -43 1 -53 3 -21 7 -12 26
11 23 10 -1 25 1 35 6 10 4 24 2 34 -6 10 -8 14 -9 10 -2 -4 7 1 14 14 18 44
14 -6 24 -96 20 l-90 -4 65 10 c35 5 66 12 68 14 10 10 -25 31 -45 27 -13 -2
-23 0 -23 6 0 14 22 21 40 12 21 -11 136 0 118 11 -9 6 -7 9 10 9 15 0 21 -4
16 -12 -5 -7 -3 -8 5 -3 7 4 11 15 8 25 -3 14 2 19 24 22 15 3 26 1 23 -3 -2
-4 0 -10 5 -14 6 -3 8 -12 5 -19 -3 -7 3 -19 12 -27 13 -10 16 -11 10 -1 -4 7
-10 26 -13 43 -4 26 -2 29 19 25 19 -3 23 -9 23 -42 0 -23 -6 -44 -15 -51 -9
-7 -10 -13 -4 -13 6 0 17 7 24 15 10 12 16 13 26 4 8 -6 11 -16 7 -23 -3 -6 0
-6 7 1 12 11 11 15 -5 26 -11 9 -15 19 -10 27 5 9 4 11 -3 6 -7 -4 -12 -1 -12
8 0 21 28 9 35 -15 5 -14 11 -17 23 -10 11 6 20 4 30 -7 8 -10 6 -4 -3 12 -17
28 -17 29 0 22 15 -5 16 -4 5 9 -11 14 -10 14 13 6 22 -9 27 -7 32 9 4 11 11
21 16 21 5 1 14 2 21 3 6 0 12 12 14 26 1 14 0 19 -2 13 -3 -7 -10 -13 -15
-13 -5 0 -4 9 3 19 6 10 18 17 25 14 8 -3 11 0 8 9 -3 7 5 25 17 38 13 14 22
28 20 32 -1 5 2 8 7 8 5 0 17 3 27 7 12 4 15 3 10 -5 -5 -8 -2 -10 8 -6 9 3
13 11 9 17 -4 6 0 8 10 4 11 -4 22 2 33 18 13 20 20 23 30 14 10 -8 14 -8 14
-1 0 6 9 16 19 22 15 7 23 6 35 -6 9 -9 16 -11 16 -4 0 6 4 9 9 5 5 -3 13 4
16 15 5 16 10 18 20 10 15 -12 31 3 20 20 -3 6 1 7 10 4 8 -4 22 -1 30 6 8 7
15 10 15 6 0 -4 11 1 24 9 14 9 30 15 38 14 7 -2 28 1 46 5 22 5 38 4 45 -4 9
-8 8 -10 -5 -5 -22 9 -82 -11 -100 -32 -12 -15 -11 -15 9 -5 26 14 33 15 33 2
0 -5 -15 -12 -34 -16 -25 -4 -38 -14 -46 -35 -7 -16 -17 -29 -22 -29 -6 0 -8
-7 -5 -15 5 -11 1 -12 -20 -4 -14 5 -28 7 -31 4 -3 -3 0 -5 6 -5 7 0 12 -5 12
-11 0 -5 -6 -7 -12 -4 -7 4 -4 -1 6 -9 11 -9 23 -16 28 -16 4 0 -2 -10 -14
-22 -22 -22 -22 -23 -4 -26 11 -2 26 -10 34 -18 7 -8 24 -14 37 -14 13 0 26
-4 30 -9 7 -12 -26 -31 -55 -31 -12 0 -19 -4 -16 -9 4 -5 -3 -7 -14 -4 -13 4
-22 -1 -27 -13 -10 -26 -29 -44 -38 -36 -5 4 -5 1 -1 -6 5 -7 19 -17 32 -22
20 -8 23 -14 17 -40 -5 -25 -2 -32 14 -36 10 -3 25 -15 32 -26 11 -18 11 -23
0 -32 -8 -6 -15 -17 -17 -25 -6 -27 -44 -72 -71 -83 l-26 -11 40 -9 c21 -5 45
-6 53 -3 7 2 11 1 8 -4 -3 -4 45 -18 107 -30 62 -12 136 -26 166 -32 30 -6 65
-12 78 -14 44 -5 34 -13 -24 -20 -32 -3 -63 -6 -68 -5 -6 2 -12 2 -15 1 -3 -1
-30 -4 -60 -6 -83 -7 -98 -9 -106 -18 -5 -4 0 -5 11 -2 16 6 17 5 5 -4 -8 -6
-27 -8 -41 -6 -24 4 -45 -14 -41 -35 0 -3 -9 -7 -21 -7 -20 -2 -20 -1 -4 8 24
14 11 32 -13 19 -10 -5 -34 -10 -52 -9 -18 0 -26 3 -18 6 8 2 22 7 30 10 8 3
23 7 32 8 10 1 21 5 25 9 8 7 -63 0 -76 -9 -8 -4 -30 -8 -120 -20 -13 -2 -28
-8 -34 -14 -14 -14 -67 -14 -67 -1 0 6 -18 10 -41 10 -26 0 -38 -4 -33 -11 3
-6 19 -9 35 -7 15 3 26 1 23 -4 -3 -4 -17 -8 -32 -8 -30 0 -139 -32 -189 -55
-20 -10 -39 -12 -54 -7 -18 7 -4 14 77 34 l99 25 -34 16 c-27 11 -39 12 -53 3
-17 -10 -16 -12 9 -17 25 -6 24 -7 -12 -9 -22 -1 -62 -2 -89 0 -38 2 -48 -1
-44 -11 4 -10 -3 -15 -21 -16 -15 -1 -40 -9 -56 -17 -17 -9 -36 -16 -44 -16
-7 0 -11 -6 -8 -14 4 -11 -2 -12 -30 -5 -27 6 -40 4 -51 -8 -11 -10 -17 -12
-20 -4 -2 6 -8 11 -13 11 -6 0 -7 -4 -4 -10 3 -5 -2 -10 -12 -10 -10 0 -24
-10 -32 -23 -14 -22 -14 -22 8 -3 11 11 21 14 21 8 0 -7 8 -12 17 -12 9 0 13
-3 10 -7 -12 -12 25 -44 38 -33 8 7 12 5 12 -5 0 -8 -7 -17 -14 -19 -8 -3 -11
-10 -8 -16 3 -5 -2 -10 -11 -10 -10 0 -14 -3 -11 -7 4 -3 20 -6 37 -5 20 0 28
-3 24 -10 -4 -6 -3 -9 2 -5 5 3 25 -3 44 -13 l35 -18 -75 4 c-41 2 -101 6
-133 9 -46 4 -57 3 -51 -7 6 -10 4 -10 -7 -2 -8 6 -31 10 -51 9 -21 -1 -38 2
-38 6 0 4 -16 1 -35 -7 -31 -12 -34 -12 -28 1 5 14 1 14 -23 3 -16 -6 -33 -15
-39 -20 -12 -11 -28 -10 -21 1 3 5 -1 12 -10 15 -8 3 -12 2 -9 -4 6 -10 0 -12
-48 -13 -20 -1 -27 -6 -25 -19 2 -9 -6 -24 -17 -32 -19 -15 -19 -15 5 -10 21
4 22 3 5 -4 -11 -5 -26 -7 -32 -5 -7 3 -13 1 -13 -5 0 -16 29 -23 79 -17 103
11 172 15 283 16 65 1 115 5 112 10 -3 5 -42 7 -87 5 -68 -4 -74 -3 -32 4 28
4 87 9 133 9 45 1 82 4 82 9 0 4 40 7 88 7 49 0 116 5 148 11 l59 10 -50 8
c-27 4 -59 10 -70 14 -11 3 -23 5 -26 4 -35 -8 -59 -9 -59 -1 0 5 -10 9 -22
10 -22 0 -22 1 -3 9 18 8 18 9 2 9 -11 1 -15 6 -11 13 4 7 3 8 -5 4 -6 -4 -9
-12 -6 -17 4 -5 2 -9 -3 -9 -17 0 -22 13 -9 29 10 14 10 14 -4 3 -12 -9 -24
-10 -43 -2 -14 5 -26 12 -26 15 0 6 119 -3 131 -11 4 -2 10 0 14 6 4 7 13 6
27 -1 11 -6 18 -7 14 -1 -8 14 28 21 48 10 9 -5 14 -13 11 -19 -4 -5 -3 -9 2
-10 46 -4 65 -3 70 5 3 5 1 6 -5 2 -6 -3 -14 -2 -17 4 -5 8 -11 8 -20 0 -9 -8
-14 -7 -18 4 -6 15 16 30 27 18 13 -13 38 -10 57 6 11 9 24 18 29 18 23 3 24
5 10 14 -11 7 -7 10 19 10 48 0 112 -21 104 -34 -3 -6 0 -5 8 1 19 18 59 16
81 -4 16 -14 24 -15 49 -6 26 10 30 10 25 -3 -3 -9 -6 -18 -6 -20 0 -3 -6 -2
-12 1 -7 4 -2 -2 12 -13 22 -18 22 -20 5 -19 -12 1 -19 -3 -17 -11 2 -9 -2
-11 -10 -5 -17 11 -139 12 -132 1 3 -4 14 -8 25 -8 10 0 19 -4 19 -10 0 -5 9
-10 19 -10 11 0 23 -4 26 -10 14 -23 173 2 215 34 13 10 13 9 1 -6 -16 -21 -9
-23 18 -7 19 13 71 5 71 -10 0 -14 -56 -24 -89 -16 -33 7 -149 -12 -169 -28
-9 -7 -16 -7 -20 0 -9 12 -92 24 -92 13 0 -5 28 -15 63 -23 76 -17 217 -22
217 -8 0 7 8 7 25 1 29 -11 33 -3 8 16 -16 12 -15 13 10 14 15 0 26 -3 25 -7
-3 -8 7 -14 20 -12 4 1 21 3 37 4 17 1 45 5 63 8 20 4 30 2 27 -3 -4 -6 3 -10
14 -10 14 0 19 5 15 15 -4 8 -1 15 6 15 6 0 8 -5 4 -11 -4 -7 1 -9 12 -7 11 2
18 10 16 17 -1 6 3 11 10 10 21 -4 59 12 53 22 -4 5 1 9 9 9 9 0 16 -5 16 -11
0 -5 5 -7 12 -3 8 5 2 12 -17 20 -17 7 -33 10 -37 7 -5 -2 -8 1 -8 6 0 6 -5
11 -11 11 -5 0 -7 -5 -3 -12 5 -8 2 -9 -9 -5 -9 3 -19 2 -22 -3 -3 -5 -13 -6
-21 -3 -11 4 -5 10 21 19 24 8 46 9 61 4 19 -8 22 -6 17 8 -6 14 -4 15 9 4 13
-10 17 -10 21 2 4 9 2 18 -3 21 -15 9 0 33 25 37 18 4 22 1 17 -11 -5 -14 -2
-13 15 2 16 14 20 14 20 2 0 -8 -4 -12 -8 -9 -4 2 -11 0 -14 -6 -4 -6 -16 -8
-28 -4 -19 6 -20 5 -8 -10 9 -10 10 -16 2 -16 -20 0 -12 -17 11 -23 13 -4 29
0 38 8 21 19 29 19 50 0 15 -13 17 -13 17 0 0 8 -4 15 -9 15 -12 0 -32 22 -35
37 -1 6 9 10 22 9 14 0 25 -5 26 -11 0 -5 4 0 9 12 7 17 18 23 40 23 16 0 30
5 30 10 0 6 -3 9 -7 9 -5 -1 -39 0 -78 1 l-70 2 95 16 c96 17 175 17 164 1 -7
-12 -4 -11 42 4 22 7 45 13 52 13 33 2 37 4 22 14 -13 8 -12 10 3 10 9 0 17
-5 17 -12 0 -6 6 -3 14 7 10 14 11 25 5 37 -9 16 -4 18 41 18 27 0 50 5 50 10
0 13 -44 13 -90 -1 -23 -7 -53 -9 -77 -4 l-38 8 43 9 c46 10 55 24 20 31 -13
2 0 5 27 6 61 1 125 -15 125 -33 0 -7 11 -23 25 -36 14 -13 23 -30 20 -38 -2
-7 0 -10 5 -7 14 9 12 24 -6 42 -8 9 -13 24 -11 35 3 10 -2 23 -11 29 -15 9
-14 9 3 4 11 -4 26 -8 33 -8 6 0 12 -4 12 -8 0 -4 9 -11 21 -14 11 -4 18 -13
15 -20 -6 -17 14 -14 47 8 19 12 47 17 101 17 57 0 75 3 80 15 4 12 2 13 -12
7 -26 -14 -132 -14 -148 -1 -10 8 -14 8 -14 0 0 -6 -10 -11 -22 -11 -23 0 -23
1 2 13 16 9 34 11 50 5 22 -7 23 -7 8 6 -25 18 -22 24 6 19 14 -3 23 -10 20
-17 -5 -14 42 -20 51 -6 3 6 11 10 16 10 6 0 7 -4 4 -10 -3 -5 -2 -10 4 -10 5
0 11 6 14 13 3 9 9 9 26 -1 12 -7 21 -8 21 -2 0 5 7 7 15 4 20 -8 19 -22 -2
-27 -10 -2 -3 -4 14 -4 24 0 30 3 24 11 -7 8 -4 12 10 12 22 0 24 -7 8 -23
-15 -15 -1 -36 18 -28 13 4 14 3 3 -10 -11 -13 -9 -15 13 -13 21 2 24 5 14 16
-8 11 -8 13 4 12 28 -4 50 0 45 9 -4 5 16 15 43 22 28 7 48 16 45 21 -3 5 -9
6 -14 3 -5 -3 -11 -1 -14 4 -3 5 3 11 14 14 11 3 18 2 15 -3 -3 -4 2 -11 11
-14 24 -9 31 -7 14 4 -12 8 -10 10 8 10 13 0 21 -4 18 -9 -3 -4 7 -7 22 -6 44
3 49 6 22 16 -19 6 -15 8 22 5 34 -2 45 0 41 10 -3 10 6 12 36 10 22 -2 40 0
39 3 -2 20 4 22 18 5 8 -10 13 -14 10 -8 -3 7 1 15 10 18 10 4 13 2 8 -6 -5
-7 -3 -8 5 -4 7 5 10 15 6 24 -4 11 3 8 21 -8 23 -21 26 -22 20 -6 -7 20 -6
20 14 1 18 -16 20 -17 14 -2 -5 13 0 17 19 17 14 0 29 -4 32 -10 3 -5 12 -10
18 -10 7 0 3 8 -8 16 -14 11 -16 18 -8 21 25 9 13 19 -17 15 -17 -2 -30 0 -30
6 0 6 -8 13 -17 15 -10 3 5 6 32 7 55 2 116 17 80 19 -17 1 -18 3 -5 11 12 8
13 11 1 19 -25 16 8 24 111 26 55 1 104 7 110 13 6 6 17 8 26 4 11 -4 14 -1
10 9 -9 24 75 57 167 63 145 11 309 42 300 57 -4 5 -1 10 4 10 15 2 23 4 44
14 10 4 32 5 50 1 19 -4 27 -3 19 3 -18 11 46 21 178 26 140 6 215 13 273 25
106 22 137 26 139 19 2 -6 201 -22 243 -20 6 0 51 2 100 4 50 1 96 6 103 10 7
5 20 6 30 3 28 -8 227 -10 240 -2 27 16 142 33 142 20 0 -5 35 -10 78 -10 208
-3 247 -6 260 -16 7 -6 37 -10 66 -9 57 2 111 -13 101 -29 -3 -5 -1 -10 5 -10
7 0 10 7 6 15 -9 24 49 32 83 11 9 -6 12 -5 8 1 -4 6 0 13 8 17 9 3 15 0 15
-9 0 -11 6 -12 30 -4 17 6 27 16 23 22 -4 6 -1 7 7 2 12 -7 73 7 119 29 13 6
59 11 101 11 54 0 76 3 73 12 -6 14 40 24 95 19 42 -4 72 -16 38 -16 -9 0 -14
-4 -11 -10 3 -5 -4 -10 -16 -10 -16 0 -19 -3 -11 -13 6 -7 29 -12 54 -11 24 1
49 -3 57 -10 12 -9 13 -8 6 4 -8 13 -6 13 8 2 9 -8 22 -10 29 -6 19 12 38 14
38 4 0 -10 65 -30 90 -29 10 0 11 2 2 6 -19 7 -4 23 23 23 29 0 41 16 25 35
-14 17 -9 19 70 35 36 7 70 17 77 22 7 5 29 9 50 8 21 -1 43 -1 48 0 6 1 13 2
18 1 4 0 7 3 7 8 0 13 83 10 93 -3 4 -6 5 1 1 17 -7 31 -2 33 57 12 31 -11 50
-13 64 -6 11 5 27 12 35 14 8 3 -1 6 -20 6 -25 1 -31 4 -23 12 14 14 76 2 67
-13 -4 -6 1 -8 15 -3 13 4 21 2 21 -5 0 -6 -4 -9 -9 -5 -5 3 -12 1 -15 -3 -3
-5 4 -9 15 -8 11 0 23 7 28 14 4 7 12 12 17 11 21 -4 35 2 29 11 -4 6 -10 8
-15 5 -5 -3 -11 -1 -15 5 -3 5 -16 10 -28 10 -33 0 -8 15 49 29 99 24 298 11
279 -18 -2 -4 2 -8 10 -8 8 0 15 4 15 8 0 5 7 6 15 3 14 -6 13 -8 -2 -20 -16
-12 -14 -13 20 -14 20 0 38 1 40 2 1 1 13 -4 26 -12 14 -7 67 -14 120 -16 52
-2 97 -7 100 -12 7 -9 19 -8 44 2 9 5 60 3 111 -3 52 -6 101 -8 110 -5 9 3 16
1 16 -4 0 -11 72 -9 110 3 14 4 20 2 20 -9 0 -8 9 -18 20 -21 11 -3 20 -11 20
-16 0 -6 8 -9 18 -8 27 5 73 -11 67 -21 -4 -6 -11 -7 -17 -4 -7 4 -8 2 -4 -4
5 -9 13 -9 27 -2 16 9 19 7 19 -11 0 -14 -5 -19 -14 -16 -17 7 -45 -23 -39
-41 4 -9 -1 -10 -22 -2 -14 5 -24 6 -21 1 3 -5 -4 -12 -17 -16 -46 -15 -47
-15 -35 8 10 20 10 21 -6 8 -14 -12 -16 -12 -11 1 3 8 -1 21 -10 28 -9 7 -15
8 -15 2 0 -6 -8 -9 -17 -7 -10 1 -24 -3 -32 -9 -12 -9 -12 -7 -2 13 8 14 9 21
2 17 -6 -4 -21 -9 -32 -11 -12 -3 -23 -6 -26 -8 -8 -8 10 -37 23 -37 8 0 14
-4 14 -10 0 -5 -7 -7 -16 -3 -13 5 -15 2 -9 -15 4 -16 2 -22 -8 -22 -21 0 -28
12 -16 26 8 9 5 11 -10 7 -22 -5 -26 -14 -14 -27 12 -12 12 -35 0 -33 -7 1
-11 -3 -10 -10 2 -7 -4 -10 -12 -7 -12 5 -10 10 8 25 12 10 18 18 13 19 -5 0
-22 -14 -37 -31 -16 -18 -30 -26 -33 -20 -6 10 -39 -2 -56 -19 -3 -3 -25 -7
-50 -9 -25 -1 -51 -8 -57 -13 -7 -6 -20 -8 -28 -4 -8 3 -25 1 -37 -4 -18 -7
-12 -9 32 -11 30 -1 62 -1 70 0 12 2 13 0 1 -7 -8 -6 -10 -15 -6 -22 5 -9 4
-11 -3 -6 -7 4 -12 3 -12 -2 0 -12 29 -24 41 -16 5 3 9 11 9 17 0 7 -4 6 -10
-3 -5 -8 -11 -12 -14 -9 -3 2 -1 10 3 17 9 16 43 4 34 -12 -4 -7 -1 -7 7 1 11
10 16 9 27 -5 8 -9 12 -11 8 -4 -7 13 7 17 19 4 13 -12 67 -8 62 5 -3 7 0 15
6 19 6 4 8 3 5 -3 -4 -6 5 -13 21 -16 17 -3 30 0 35 9 4 8 13 14 20 14 7 0 6
-4 -3 -10 -16 -11 -15 -11 18 -15 12 -1 20 0 17 3 -8 9 16 32 35 32 9 0 25 9
35 20 10 11 22 17 28 13 6 -3 7 -1 3 5 -8 13 -36 5 -36 -10 0 -5 -4 -7 -9 -4
-5 4 -12 0 -15 -6 -3 -7 -3 -3 0 9 3 15 -1 23 -13 27 -10 2 -1 3 19 0 20 -2
40 1 43 6 10 15 34 0 28 -18 -4 -13 -2 -12 11 3 10 11 14 14 11 7 -6 -11 -3
-11 14 0 12 7 21 18 21 24 0 7 11 15 24 18 33 8 61 37 46 46 -8 5 0 11 19 18
29 10 44 42 20 42 -5 0 -8 4 -5 9 3 4 31 8 63 8 34 0 58 4 61 11 2 7 10 12 18
12 9 0 13 -4 9 -9 -9 -15 29 -18 40 -4 10 14 42 23 85 26 14 1 30 8 36 16 6 8
16 11 22 7 8 -5 12 0 12 13 0 22 11 26 84 37 37 5 58 15 82 40 33 32 35 32
118 31 46 -1 82 1 80 4 -4 7 117 49 140 49 7 0 31 -14 52 -31 37 -30 42 -31
99 -23 33 4 96 7 140 5 44 -1 93 3 109 8 25 10 28 9 22 -6 -6 -16 -6 -17 9 -2
8 8 16 32 17 52 1 33 6 39 45 58 23 11 49 18 55 16 8 -3 6 -6 -4 -6 -24 -1
-23 -10 7 -37 14 -13 25 -21 25 -18 0 3 6 -1 14 -8 19 -18 5 -24 -54 -22 -30
0 -50 -3 -50 -10 0 -6 -4 -4 -10 4 -5 8 -12 11 -15 8 -13 -13 7 -28 33 -26 15
1 32 -1 38 -4 5 -4 30 -2 54 3 31 7 45 7 50 -1 4 -7 10 -11 14 -11 17 3 18 0
3 -17 -10 -11 -13 -23 -8 -31 6 -9 10 -6 15 13 3 14 16 31 27 37 13 6 19 7 15
1 -7 -12 40 1 90 25 18 8 42 15 55 15 40 1 137 -10 146 -15 5 -3 38 -9 73 -13
36 -3 79 -12 97 -20 33 -13 70 -13 91 0 7 4 12 5 12 1 0 -3 8 -1 18 4 12 6 25
5 42 -4 13 -7 30 -10 38 -7 9 3 2 10 -19 19 -42 18 -28 28 52 37 52 7 106 -4
119 -23 7 -10 151 -34 230 -38 36 -1 104 4 153 12 48 8 99 15 113 15 14 0 23
4 19 10 -3 6 1 10 10 10 9 0 26 7 39 15 41 27 245 21 288 -9 11 -8 42 -11 80
-10 173 7 265 5 388 -10 262 -33 301 -36 324 -30 13 3 27 1 30 -5 4 -5 14 -7
23 -4 10 4 14 2 9 -5 -4 -8 3 -8 26 -1 18 6 40 13 49 16 9 2 20 0 23 -6 4 -6
-4 -13 -19 -17 -30 -7 -34 -25 -4 -19 26 5 57 -10 82 -39 10 -11 16 -15 12 -9
-4 9 4 11 32 7 21 -3 74 -7 118 -8 44 -2 107 -10 140 -18 66 -15 95 -13 95 7
0 17 18 14 53 -10 18 -11 48 -19 77 -19 26 -1 43 -4 37 -8 -8 -5 -6 -8 5 -8 9
0 23 -6 30 -12 7 -7 22 -15 33 -16 17 -4 17 -2 -5 16 l-24 20 27 0 c15 0 27
-3 27 -7 0 -3 16 -7 35 -8 19 -1 42 -9 51 -17 8 -9 20 -16 25 -16 20 0 42 -31
31 -42 -16 -16 27 -47 58 -41 34 6 36 10 17 31 -10 10 -14 22 -10 25 3 4 0 7
-7 7 -7 0 -11 3 -8 6 8 8 88 -17 83 -26 -3 -4 2 -13 10 -20 8 -7 15 -9 15 -5
0 4 7 2 16 -5 8 -8 14 -9 12 -3 -5 19 16 13 46 -14 16 -14 26 -19 24 -12 -3 8
2 23 11 34 16 20 16 20 -5 2 -28 -23 -37 -22 -24 4 11 19 10 20 -12 8 -21 -11
-22 -11 -9 5 8 9 21 14 30 11 9 -2 23 0 31 5 10 6 20 4 31 -6 10 -9 19 -11 23
-6 9 14 57 -10 51 -25 -3 -10 0 -10 13 -2 25 16 106 -19 90 -39 -9 -10 -9 -15
1 -21 9 -6 8 -11 -5 -22 -12 -9 -15 -10 -10 -1 4 8 1 12 -9 12 -10 0 -15 -6
-12 -13 3 -8 -1 -14 -9 -14 -7 0 -10 5 -7 10 3 6 1 7 -5 3 -7 -4 -12 -13 -12
-20 0 -15 -43 -26 -106 -26 -23 0 -46 -4 -49 -10 -3 -5 -15 -10 -27 -10 -14 0
-18 -5 -14 -15 4 -12 0 -15 -22 -12 -15 3 -33 -1 -41 -7 -11 -8 -13 -8 -8 0 3
6 -6 17 -21 24 -27 13 -34 15 -60 18 -7 1 -11 6 -8 11 4 5 -2 8 -11 7 -10 -2
-29 1 -42 6 -21 7 -22 7 -11 -7 7 -8 15 -13 19 -11 3 2 20 -7 36 -21 l30 -26
-29 18 c-27 16 -29 16 -23 0 4 -9 7 -21 7 -26 0 -5 6 -9 14 -9 8 0 18 -5 22
-11 5 -9 -1 -10 -22 -5 l-29 7 24 -19 c22 -18 22 -42 0 -42 -6 0 -8 4 -4 9 3
5 0 13 -6 17 -7 4 -9 3 -5 -4 3 -6 2 -13 -4 -17 -5 -3 -10 -13 -10 -21 0 -12
4 -12 23 -2 28 17 38 30 32 46 -2 6 0 12 5 12 5 0 8 -13 8 -30 -1 -20 -7 -32
-20 -36 -15 -4 -17 -9 -7 -20 6 -7 16 -11 21 -8 6 4 5 10 -3 15 -11 7 -11 9 2
9 26 0 56 -27 43 -40 -9 -8 -21 -7 -50 5 -48 20 -92 27 -99 15 -3 -5 -13 -6
-23 -3 -15 6 -15 4 2 -15 19 -22 19 -22 -5 -23 -40 -2 28 -16 84 -18 34 -1 46
-4 41 -13 -4 -7 -3 -8 4 -4 7 4 18 4 24 -1 16 -9 145 -6 161 4 7 4 23 6 37 5
14 -2 21 1 15 5 -5 4 -11 18 -13 31 -3 21 0 22 35 18 96 -13 172 -16 177 -7 3
5 27 7 53 6 27 -2 107 -6 178 -10 72 -4 158 -13 193 -21 35 -8 79 -14 98 -14
l34 0 0 4784 0 4783 -10236 0 c-7547 0 -10237 -3 -10239 -11z m8657 -377 c48
-7 85 -16 82 -20 -3 -5 34 -10 83 -10 48 -1 102 -5 118 -8 25 -6 19 -9 -40
-16 -38 -4 -137 -11 -220 -15 l-150 -7 105 -3 c72 -2 96 -5 75 -10 -30 -8 -30
-8 8 -9 21 0 54 6 74 14 39 17 110 20 132 6 12 -8 12 -12 2 -25 -8 -9 -19 -16
-27 -16 -19 0 -84 -32 -84 -42 0 -5 10 -2 23 6 12 8 51 22 87 31 36 9 69 20
74 25 5 5 19 4 32 0 13 -5 29 -8 36 -6 7 3 29 7 48 10 25 4 31 3 20 -4 -24
-15 21 -13 61 4 19 7 68 14 109 15 41 2 78 4 81 7 4 2 10 0 14 -6 3 -5 25 -10
49 -10 87 0 64 -15 -74 -46 -14 -3 -72 -9 -130 -13 l-105 -8 75 -3 c70 -2 73
-3 40 -13 -19 -6 -37 -14 -40 -18 -3 -4 -25 -9 -49 -11 -25 -2 -46 -9 -49 -16
-2 -7 2 -10 10 -7 9 4 14 -2 15 -15 1 -13 -4 -20 -15 -20 -15 0 -15 2 -2 11
12 8 10 9 -10 5 -14 -3 -32 -6 -40 -6 -9 0 -30 -14 -49 -30 -18 -17 -37 -27
-43 -24 -7 4 -8 2 -4 -4 8 -13 36 -16 36 -4 0 4 11 9 25 10 34 3 31 -5 -7 -23
-20 -9 -24 -14 -11 -11 14 2 23 -2 26 -15 3 -13 1 -17 -6 -12 -17 11 -39 13
-51 5 -6 -3 -17 -7 -24 -8 -28 -5 -24 -14 7 -20 27 -6 30 -9 19 -23 -11 -14
-11 -14 2 -5 8 6 38 11 65 12 39 0 44 -2 25 -8 -25 -8 -24 -8 5 -9 l30 -1 -30
-16 c-23 -12 -38 -13 -68 -6 -32 9 -36 8 -26 -4 6 -8 15 -11 20 -8 5 3 9 0 9
-5 0 -6 7 -11 15 -11 9 0 15 -9 15 -25 0 -21 -5 -25 -27 -25 -19 0 -24 3 -15
9 10 6 7 10 -12 13 -21 4 -24 3 -15 -9 9 -11 9 -12 -4 -7 -16 6 -42 -28 -30
-40 3 -3 1 -6 -5 -6 -7 0 -12 5 -12 11 0 8 -5 7 -15 -1 -9 -7 -18 -10 -22 -6
-3 3 -1 6 7 6 10 0 10 3 0 15 -15 18 -30 19 -30 2 0 -7 -12 -13 -27 -12 -21 0
-27 -4 -25 -17 3 -17 -34 -36 -46 -24 -3 4 3 9 15 12 11 3 20 12 19 20 -3 21
-16 30 -16 11 0 -18 -42 -33 -59 -22 -6 3 -27 3 -46 -1 -29 -5 -33 -9 -24 -20
6 -8 19 -14 28 -14 14 0 14 2 1 10 -13 9 -13 10 0 11 28 2 55 -3 61 -12 3 -5
17 -10 31 -11 15 -1 25 -5 22 -9 -2 -4 11 -10 29 -15 17 -4 43 -11 57 -15 l25
-7 -25 -1 c-15 0 -32 -7 -39 -13 -12 -11 -13 -10 -7 6 6 18 5 18 -20 2 -14
-10 -32 -15 -39 -12 -7 2 -16 -2 -19 -10 -3 -9 -10 -13 -15 -9 -5 3 -12 1 -16
-5 -8 -13 -62 -13 -70 0 -6 10 -5 11 33 15 12 1 26 6 30 10 4 5 -1 5 -10 2
-10 -4 -18 -3 -18 2 0 5 -17 11 -37 14 -44 7 -68 -8 -34 -21 20 -7 21 -10 9
-23 -15 -15 -18 -21 -18 -43 0 -9 -7 -12 -20 -9 -11 3 -20 1 -20 -4 0 -11 91
-10 130 1 32 9 118 8 195 -3 43 -6 50 -9 25 -10 -20 0 -40 -5 -45 -9 -25 -22
-122 -53 -207 -67 -199 -32 -225 -33 -267 -12 -17 8 -31 11 -31 6 0 -5 7 -12
15 -15 19 -8 9 -24 -14 -24 -10 0 -30 -10 -44 -22 -52 -46 -72 -58 -100 -58
-16 0 -34 -6 -41 -13 -19 -18 -81 -16 -81 3 0 15 -37 16 -43 2 -10 -25 -24
-35 -55 -36 -19 -1 -42 -10 -51 -19 -10 -9 -24 -17 -33 -17 -13 0 -13 -3 -2
-16 8 -10 9 -18 2 -22 -5 -4 -9 -15 -7 -24 1 -10 -3 -19 -9 -20 -7 0 -17 -2
-23 -2 -6 -1 -19 -9 -28 -19 -10 -9 -26 -17 -36 -17 -24 0 -35 -16 -16 -23 8
-3 13 -14 11 -24 -2 -10 -4 -24 -4 -30 -1 -7 -8 -13 -17 -13 -11 0 -14 -6 -9
-20 5 -14 2 -20 -9 -20 -9 0 -16 -7 -16 -15 0 -8 -2 -15 -4 -15 -2 0 -12 -3
-22 -7 -14 -5 -16 -2 -12 15 5 19 4 20 -14 11 -14 -7 -18 -8 -14 0 4 5 -3 15
-14 21 -11 6 -19 16 -17 23 3 16 -42 16 -68 0 -11 -7 -33 -13 -51 -13 -23 0
-34 6 -42 26 -7 14 -17 22 -23 19 -5 -4 -22 5 -36 20 -21 21 -32 25 -56 19
-21 -4 -27 -3 -23 5 4 6 11 9 15 6 5 -2 13 7 20 21 11 24 10 25 -16 23 -52 -4
-61 0 -56 21 4 16 9 18 24 9 13 -7 25 -7 37 0 9 6 13 11 7 11 -5 0 -3 5 5 10
13 9 12 12 -4 25 -11 8 -16 15 -11 15 4 0 -4 11 -19 25 -31 29 -93 35 -102 10
-5 -11 -10 -13 -19 -5 -6 5 -16 6 -21 2 -4 -4 -2 1 5 11 12 15 11 17 -10 18
l-24 0 25 10 c14 6 43 8 65 4 22 -3 50 -6 63 -6 14 1 20 -3 17 -10 -4 -6 2 -5
14 3 27 17 27 34 -1 49 -22 12 -22 12 -3 19 18 6 18 9 -10 36 -28 28 -29 31
-13 46 9 9 20 13 24 10 5 -4 3 0 -4 9 -7 9 -12 21 -11 25 4 22 -2 34 -18 34
-13 0 -14 3 -5 12 9 9 8 16 -5 30 -9 10 -20 18 -25 18 -5 0 -16 6 -24 14 -11
11 -11 16 -1 20 6 3 2 3 -10 0 -13 -3 -33 2 -45 10 -24 17 -42 21 -35 9 3 -5
-10 -9 -29 -9 -19 -1 -34 3 -34 8 0 6 9 8 20 5 40 -10 30 13 -15 34 -25 12
-45 25 -45 30 0 5 -6 9 -12 9 -7 0 -22 13 -32 29 -21 30 -88 66 -109 58 -14
-5 -39 18 -30 27 8 7 -14 15 -52 19 -17 2 -35 6 -40 9 -6 3 -46 9 -90 13 -44
4 -87 9 -95 10 -8 1 -19 -1 -25 -5 -5 -4 -44 -8 -85 -7 -41 0 -84 -3 -95 -7
-16 -6 -17 -6 -5 3 11 8 4 9 -30 5 -25 -3 -56 -1 -70 5 -20 8 -21 10 -6 10 11
1 17 3 14 6 -7 8 -45 15 -101 19 -52 4 -76 16 -36 17 23 0 23 1 4 10 -16 7
-13 8 10 3 17 -3 38 -7 47 -9 10 -2 59 -5 110 -6 78 -2 92 1 94 15 2 12 -6 16
-37 16 -21 0 -39 -4 -39 -9 0 -6 -12 -6 -27 -2 -16 4 -46 6 -68 4 -26 -2 -33
0 -22 5 12 5 -1 8 -40 10 -32 1 -67 4 -78 6 -11 3 -29 5 -40 6 -11 1 -14 4 -7
7 6 2 10 8 8 11 -2 4 37 6 87 6 118 -2 218 6 211 17 -3 5 11 9 31 9 20 0 34 4
30 9 -3 6 10 13 29 16 31 6 54 30 41 43 -3 3 -5 0 -5 -7 0 -7 -5 -9 -11 -5 -7
4 -39 6 -73 5 -33 0 -68 3 -76 9 -13 8 -12 10 3 10 9 0 17 3 17 8 0 4 21 8 46
10 25 1 56 8 67 14 13 7 61 12 110 12 48 -1 83 3 76 7 -8 5 -6 9 7 12 15 4 14
5 -6 6 l-25 2 23 10 c13 5 94 13 180 19 192 12 203 12 222 0 13 -9 13 -11 0
-20 -22 -14 6 -13 33 2 21 11 21 11 2 19 -17 6 -16 8 8 8 16 1 26 -3 22 -9 -4
-6 2 -7 17 -2 13 5 34 5 48 1 14 -4 41 -7 60 -7 20 0 26 2 15 5 -41 10 -39 23
5 23 48 0 206 -19 230 -28 8 -3 19 -4 24 -3 4 1 14 -3 22 -9 9 -8 18 -9 31 -1
17 10 17 10 0 11 -10 0 -16 3 -14 8 3 4 -20 8 -50 10 -77 4 -105 21 -38 23 43
1 46 2 20 8 -25 6 -20 9 37 15 91 11 319 12 341 2 12 -6 16 -5 12 5 -4 11 17
15 107 17 61 1 113 4 115 6 8 8 425 -5 505 -15z m-2152 -30 c194 -17 220 -21
220 -29 0 -4 -44 -13 -97 -19 -54 -6 -129 -16 -168 -21 l-70 -9 80 3 c86 4 79
1 -75 -29 -118 -24 -200 -47 -200 -57 0 -4 -9 -8 -21 -8 -11 0 -17 5 -14 10 4
6 -6 10 -22 9 -25 0 -26 -1 -8 -10 18 -8 18 -9 -5 -7 -14 1 -40 -2 -59 -6 -19
-5 -82 -10 -140 -12 -133 -5 -130 -4 -123 -23 4 -10 7 -11 10 -3 2 7 10 12 18
12 9 0 13 -3 11 -7 -3 -5 25 -9 62 -9 44 -1 58 1 41 6 -21 7 -19 8 15 9 26 0
35 -2 26 -8 -7 -5 -10 -14 -7 -20 5 -7 -6 -11 -31 -12 -28 0 -33 -2 -19 -8 35
-13 -1 -24 -83 -23 -61 0 -71 -2 -51 -10 24 -10 24 -10 5 -18 -11 -5 -32 -9
-47 -9 -44 -1 -32 -21 12 -21 22 0 40 -4 40 -10 0 -11 -1 -11 -40 -15 -29 -4
-85 -13 -118 -20 -14 -4 -21 -1 -20 7 2 10 -13 12 -59 11 -34 -2 -65 2 -68 7
-3 6 -12 10 -18 10 -7 0 -6 -4 3 -10 13 -8 12 -10 -2 -10 -10 0 -18 5 -18 10
0 13 -21 9 -39 -8 -10 -10 -27 -12 -57 -7 -24 3 -70 6 -103 6 -50 1 -61 4 -61
17 -1 16 -2 15 -14 0 -17 -22 -46 -23 -46 -2 0 11 6 15 20 11 11 -3 22 -1 25
4 3 4 24 6 45 4 39 -4 57 10 23 17 -10 2 4 8 30 12 27 4 51 5 55 2 3 -3 -7 -6
-23 -6 -16 0 -25 -3 -21 -7 4 -4 59 -8 122 -9 94 -1 112 1 103 13 -9 10 -8 13
5 13 9 0 16 4 16 9 0 5 10 7 23 4 16 -3 18 -2 8 5 -11 8 -9 11 9 17 15 5 19
10 11 15 -7 4 -11 12 -9 17 3 13 -6 15 -27 7 -12 -5 -85 20 -85 29 0 1 18 3
40 3 22 1 37 -2 34 -7 -3 -5 2 -9 10 -9 8 0 18 5 21 10 3 6 12 10 18 10 8 0 8
-3 -2 -9 -11 -7 -11 -10 0 -17 7 -4 14 -3 17 4 2 7 16 12 30 12 15 0 34 5 42
10 14 9 -31 14 -122 14 -9 0 -15 3 -12 8 3 4 -2 8 -11 8 -9 0 -13 -4 -10 -10
3 -5 4 -10 1 -10 -2 0 -13 -3 -23 -7 -16 -6 -16 -5 -4 10 12 15 11 17 -5 19
-11 0 17 4 61 9 160 15 200 22 177 30 -11 4 -35 4 -51 -1 -55 -15 -190 -23
-204 -12 -8 7 -18 7 -27 2 -22 -14 -179 -13 -160 1 11 8 8 9 -15 4 -35 -8 -38
-9 -88 -7 -25 1 -36 6 -31 13 4 7 -3 10 -17 9 -13 -1 -35 -1 -49 0 -23 1 -23
2 -5 10 15 6 3 10 -45 16 l-65 8 40 8 c22 4 85 10 141 12 55 3 114 10 130 16
19 8 60 9 116 5 70 -6 92 -4 115 9 18 11 72 19 158 25 146 11 664 4 825 -10z
m-1499 -106 c18 -9 57 -19 86 -21 43 -4 51 -7 43 -18 -15 -17 19 -36 66 -37
36 -1 45 -11 19 -21 -8 -3 -15 -12 -15 -21 0 -13 -4 -14 -21 -5 -11 7 -23 9
-27 6 -3 -3 0 -6 7 -6 7 0 9 -5 5 -12 -4 -7 -3 -8 4 -4 7 4 12 3 12 -1 0 -5
-16 -9 -36 -9 -21 0 -32 2 -25 4 6 2 9 7 6 12 -3 5 -19 2 -35 -7 -24 -12 -37
-12 -65 -3 -19 6 -39 9 -44 6 -5 -3 -12 1 -15 9 -5 13 -10 14 -27 5 -11 -7
-23 -9 -27 -6 -3 3 1 6 9 6 11 0 11 2 1 9 -8 4 6 8 35 8 152 2 178 4 161 14
-10 5 -55 11 -100 13 -46 1 -92 6 -103 10 -16 6 -17 6 -5 -3 13 -9 12 -11 -5
-12 -11 0 -38 -2 -60 -4 -63 -5 -106 29 -47 38 19 3 14 4 -16 6 -31 1 -41 -2
-36 -11 5 -8 2 -9 -10 -5 -10 4 -20 7 -22 7 -3 0 -2 5 1 10 3 6 14 10 24 10
10 0 26 9 36 20 14 15 32 20 79 21 59 2 59 2 21 10 -30 6 -24 7 26 3 37 -2 82
-12 100 -21z m10721 4 c50 -13 72 -27 45 -27 -9 0 -17 -4 -17 -9 0 -12 66 -24
112 -22 21 2 47 0 58 -4 20 -6 20 -7 -2 -25 -17 -14 -19 -20 -8 -20 10 -1 9
-4 -5 -10 -28 -12 -83 -12 -90 0 -3 6 -18 10 -33 10 -21 0 -24 2 -12 10 9 6
10 10 3 10 -6 0 -20 3 -30 6 -15 5 -15 4 -3 -5 8 -5 11 -13 7 -17 -9 -10 -96
-9 -126 1 -19 6 -20 9 -9 23 10 12 10 14 1 8 -7 -4 -13 -5 -13 -1 0 3 10 10
23 15 l22 9 -23 0 c-13 1 -33 -4 -44 -10 -27 -14 -158 -21 -158 -8 0 5 19 10
43 11 l42 1 -45 6 -45 7 43 8 c23 4 40 12 37 16 -3 5 21 11 52 15 32 4 63 8
68 10 20 7 61 4 107 -8z m-4296 -46 c40 -6 57 -4 65 6 12 14 39 18 39 5 0 -4
46 -8 102 -10 56 -1 112 -5 123 -9 17 -6 15 -8 -15 -15 -83 -22 -152 -27 -260
-21 -73 4 -106 9 -90 14 16 5 -1 8 -50 9 -65 2 -71 3 -42 11 17 5 32 12 32 15
0 3 -10 2 -22 -1 -18 -5 -20 -4 -8 4 8 6 28 8 43 5 16 -3 53 -9 83 -13z m-182
-18 c15 -4 16 -7 5 -14 -9 -6 -2 -7 19 -3 22 5 32 3 32 -6 0 -8 10 -11 29 -8
17 2 28 1 25 -3 -2 -4 19 -12 48 -17 44 -8 47 -10 19 -11 -40 -1 -111 -21
-111 -31 0 -4 -12 -5 -27 -3 -20 3 -24 2 -14 -5 16 -11 6 -32 -14 -32 -19 0
-55 -31 -49 -42 6 -9 -21 -10 -54 -1 -16 4 -20 8 -11 13 6 4 -3 7 -22 5 -68
-5 -82 20 -16 29 23 3 47 7 54 8 7 1 10 5 7 10 -3 5 -9 6 -13 4 -4 -3 -8 1 -8
9 0 10 12 13 46 11 25 -2 36 -1 24 1 -13 2 -23 9 -23 14 0 6 -16 8 -37 5 -37
-5 -37 -5 -10 6 30 13 35 26 13 34 -8 3 -17 12 -20 19 -4 11 6 14 42 14 26 0
55 -3 66 -6z m-6439 -153 c-4 -6 8 -10 27 -11 18 0 44 -3 58 -5 14 -3 50 -7
80 -9 30 -2 73 -6 94 -9 26 -3 35 -1 25 5 -10 6 -7 9 14 9 24 0 28 -4 26 -27
0 -5 -8 -7 -17 -6 -9 1 -5 -3 9 -10 14 -7 34 -19 44 -27 12 -9 16 -10 11 -2
-6 10 1 11 31 7 56 -9 183 -11 183 -4 0 3 42 9 93 12 132 7 276 -19 202 -37
-14 -4 -23 -10 -21 -15 8 -12 -37 -19 -103 -16 -72 4 -54 4 -224 -1 -102 -3
-146 -1 -142 6 4 7 -3 8 -22 4 -15 -4 -59 -7 -97 -6 -57 1 -73 5 -90 23 -15
15 -17 23 -8 26 41 16 -34 49 -101 44 -49 -3 -143 15 -152 29 -3 5 14 13 37
18 24 6 44 10 46 11 2 1 0 -3 -3 -9z m9350 -19 c3 -6 -2 -14 -12 -19 -17 -9
-161 -32 -293 -48 -66 -7 -181 -33 -195 -43 -5 -4 -23 -8 -40 -10 -16 -1 -45
-10 -62 -18 -18 -8 -41 -12 -50 -9 -15 6 -16 5 -5 -5 10 -11 5 -17 -25 -31
-36 -18 -37 -18 -59 3 -12 12 -27 18 -33 15 -5 -4 -13 -1 -17 5 -5 9 1 10 22
5 71 -16 79 -17 64 -7 -8 5 -17 8 -21 5 -4 -2 -12 3 -18 10 -10 11 -8 16 9 21
12 4 31 16 41 26 13 13 27 18 40 14 10 -4 19 -2 19 3 0 12 71 32 125 36 22 2
47 5 55 9 8 3 69 8 135 12 157 8 154 8 149 16 -5 9 34 16 108 18 31 0 59 -3
63 -8z m-9580 -13 c4 -3 24 -4 45 -1 26 4 43 1 52 -8 16 -17 22 -63 7 -54 -6
4 -13 -1 -15 -11 -4 -16 -15 -19 -71 -18 -49 1 -70 6 -78 18 -9 11 -29 16 -71
17 -48 0 -183 35 -149 38 6 1 3 6 -5 11 -11 7 -3 10 28 10 24 0 41 -4 38 -9
-3 -5 7 -11 22 -14 15 -3 38 -8 52 -12 24 -6 24 -6 6 9 -19 16 -19 16 6 16 14
0 42 -7 61 -15 32 -13 36 -13 31 0 -4 8 -14 15 -23 15 -9 0 -23 5 -31 10 -10
7 1 9 37 7 29 -2 55 -6 58 -9z m545 -152 c0 -5 -3 -7 -6 -3 -7 7 -58 -17 -93
-44 -29 -23 -59 -24 -88 -4 -19 13 -22 13 -27 -1 -6 -15 -50 -15 -75 1 -6 3
-11 1 -11 -5 0 -6 12 -15 26 -21 27 -10 26 -21 -1 -25 -16 -2 -48 41 -52 72
-2 14 5 25 19 32 28 13 308 11 308 -2z m254 -19 c-17 -7 -42 -20 -55 -29 -19
-14 -21 -19 -10 -26 7 -6 11 -14 7 -20 -3 -6 4 -18 16 -26 12 -9 19 -19 15
-22 -7 -7 -176 -8 -212 -1 -29 6 -26 46 7 81 38 39 90 55 183 55 72 0 77 -2
49 -12z m201 2 l20 0 -20 -9 c-16 -7 -13 -9 16 -9 25 -1 39 4 43 15 5 13 16
15 54 10 26 -3 68 -7 94 -8 26 -1 45 -4 42 -7 -3 -3 12 -11 33 -18 34 -10 28
-11 -57 -7 -135 6 -178 7 -235 4 -44 -2 -47 -3 -25 -12 14 -5 35 -7 48 -5 12
2 22 -1 23 -7 0 -7 2 -7 5 1 6 13 34 6 34 -8 0 -4 -7 -5 -17 -2 -10 4 -14 2
-9 -5 3 -6 1 -14 -5 -18 -7 -4 -9 -3 -5 4 9 14 -33 27 -47 13 -13 -13 38 -35
65 -28 9 3 16 2 15 -2 -1 -3 3 -6 8 -6 6 0 9 8 9 17 -1 10 3 15 7 12 5 -3 7
-10 4 -15 -6 -8 9 -13 29 -10 5 1 4 -5 -3 -13 -7 -8 -20 -15 -29 -16 -9 0 -41
-3 -69 -6 -37 -4 -53 -2 -53 6 0 8 -10 9 -30 5 -20 -4 -30 -3 -30 5 0 8 -10
10 -27 6 -16 -3 -22 -3 -15 0 6 3 10 10 6 15 -3 5 1 9 8 9 10 0 10 2 0 9 -9 5
3 7 29 5 24 -1 47 0 52 3 11 7 -80 52 -108 54 -11 0 3 7 30 14 28 7 59 11 70
9 11 -2 29 -4 40 -5z m645 -148 c0 -5 16 -9 36 -9 22 0 44 -8 58 -21 12 -12
25 -18 28 -15 4 3 15 1 25 -6 15 -9 10 -10 -24 -6 -26 4 -43 2 -43 -4 0 -5 7
-6 17 -3 11 4 14 3 9 -6 -5 -7 -2 -10 5 -9 7 2 15 -5 17 -15 2 -13 -2 -16 -19
-15 -12 2 -24 -3 -26 -9 -3 -7 3 -13 12 -13 10 0 14 -5 9 -12 -5 -10 -4 -10 6
-1 7 6 19 9 28 6 9 -4 13 -2 9 4 -4 6 13 1 36 -10 23 -12 43 -24 45 -28 2 -5
10 -5 19 -2 12 5 14 3 8 -8 -6 -11 -5 -12 6 -1 16 14 33 16 24 2 -3 -5 5 -15
18 -21 14 -6 24 -18 22 -28 -1 -9 5 -19 14 -23 12 -5 10 -7 -7 -7 -16 -1 -21
-5 -16 -13 4 -7 -2 -5 -13 5 -11 9 -23 14 -26 10 -4 -3 -7 0 -7 7 0 7 -3 10
-6 7 -4 -3 -16 0 -28 8 -11 8 -31 15 -43 15 -13 0 -23 4 -23 9 0 11 -38 24
-65 22 -20 -2 -20 -2 0 14 19 15 17 15 -20 10 -31 -4 -35 -3 -17 5 23 10 30
22 10 18 -7 -2 -12 2 -13 9 0 15 -15 30 -15 15 0 -7 -5 -12 -11 -12 -5 0 -7 5
-4 10 4 6 2 17 -5 24 -8 11 -5 16 17 24 22 8 24 11 8 11 -17 1 -17 3 -5 11 8
5 11 10 5 10 -5 0 -17 -5 -25 -10 -13 -9 -13 -10 0 -10 13 0 13 -1 0 -10 -8
-5 -24 -9 -35 -9 -18 1 -18 2 -2 6 16 4 15 7 -8 19 -15 8 -34 14 -42 14 -13 0
-13 2 -2 17 13 15 11 15 -13 -1 -26 -17 -49 -7 -25 12 21 17 97 28 97 13z
m-3975 -551 c7 -6 14 -7 17 -4 9 9 120 -45 113 -55 -3 -6 6 -13 20 -17 18 -4
23 -10 16 -17 -7 -7 -15 -6 -26 3 -13 11 -14 10 -9 -3 5 -13 17 -16 60 -13 30
3 54 0 54 -5 0 -5 6 -9 14 -9 21 0 28 -17 10 -24 -8 -3 -13 -2 -10 3 3 5 -10
9 -30 9 -22 0 -32 -3 -24 -8 26 -16 5 -28 -25 -14 -72 35 -114 61 -108 67 3 4
1 7 -6 7 -7 0 -10 4 -6 9 3 5 -9 3 -26 -6 -26 -13 -37 -14 -70 -3 -22 7 -42
10 -45 7 -4 -3 -13 0 -20 8 -10 10 -22 11 -46 4 -21 -5 -36 -5 -42 1 -6 6 -18
10 -28 10 -20 0 -25 16 -5 18 6 0 21 3 32 5 11 2 33 0 49 -4 20 -6 32 -5 37 3
4 6 16 8 28 5 23 -6 26 0 11 23 -6 9 -10 11 -10 3 0 -7 -7 -10 -15 -7 -8 4
-12 11 -9 16 7 12 82 2 99 -12z m13150 -640 c-3 -5 -1 -10 4 -10 6 0 11 -7 11
-15 0 -8 3 -15 8 -16 53 -6 53 -6 49 13 -7 24 13 35 25 14 5 -9 19 -25 30 -36
20 -18 24 -19 44 -5 13 8 25 11 28 7 6 -10 67 -7 74 5 4 5 16 13 27 16 18 7
18 5 -2 -10 -13 -10 -19 -23 -15 -29 9 -14 57 -30 49 -17 -4 5 1 10 9 10 8 0
13 -5 11 -11 -2 -6 -15 -10 -29 -9 -23 1 -24 -1 -14 -22 7 -16 15 -20 22 -14
15 13 26 -1 13 -18 -13 -14 -6 -17 43 -13 14 1 29 -3 33 -9 3 -6 11 -11 16
-11 6 0 8 4 4 9 -3 6 4 8 17 5 23 -5 51 -12 56 -13 1 -1 5 -1 10 -2 4 0 14 -7
22 -14 24 -22 68 -36 76 -24 4 6 11 6 20 -2 11 -9 14 -9 14 1 0 7 7 10 16 6
10 -4 13 -2 8 6 -5 7 -2 9 9 5 10 -4 21 3 33 21 9 15 13 24 9 20 -5 -4 -14 -3
-22 4 -11 8 -12 7 -7 -6 3 -9 2 -16 -3 -16 -16 0 -11 34 6 47 22 17 28 16 34
-8 4 -14 10 -18 19 -13 11 6 11 5 0 -8 -10 -13 -10 -17 1 -21 13 -5 60 27 51
36 -3 3 0 8 7 13 7 4 10 3 6 -3 -8 -13 42 -38 68 -34 11 1 37 3 58 4 20 0 37
4 37 8 0 5 6 6 14 3 8 -3 13 -11 10 -19 -3 -7 2 -15 10 -18 10 -4 13 -1 9 9
-5 14 2 17 40 17 9 0 17 3 17 7 0 6 7 8 50 12 11 1 20 6 20 11 0 4 5 5 10 2 6
-4 1 -14 -12 -25 -13 -11 -17 -19 -10 -20 6 0 12 -4 12 -10 0 -17 -30 1 -30
19 -1 14 -2 14 -9 1 -18 -30 4 -48 39 -33 8 3 19 7 24 7 5 1 12 10 17 21 4 11
8 14 8 8 1 -7 8 -13 16 -13 8 0 15 6 16 13 0 9 2 9 6 -1 2 -6 8 -10 11 -8 4 2
36 0 72 -4 63 -8 100 0 100 21 0 5 -7 9 -16 7 -10 -2 -19 3 -21 10 -3 7 5 12
19 13 13 0 17 3 11 6 -7 2 -12 14 -12 26 1 17 2 18 6 4 2 -9 9 -15 14 -12 5 4
9 1 9 -6 0 -7 3 -10 6 -7 3 4 0 16 -6 28 -8 15 -8 20 -1 16 6 -4 19 -3 28 3
16 8 14 10 -9 16 -15 4 -32 4 -37 0 -16 -9 -13 -1 7 22 19 22 44 20 35 -3 -3
-8 0 -14 5 -14 6 0 18 -8 28 -17 16 -16 18 -16 36 7 19 24 58 36 58 19 0 -4 8
-10 18 -13 9 -3 -1 -3 -23 -1 -25 3 -35 1 -26 -4 8 -5 10 -14 6 -21 -6 -10 -3
-12 12 -8 13 3 20 0 20 -9 0 -19 -42 -12 -43 7 -1 8 -2 19 -3 24 0 5 -9 2 -19
-7 -11 -10 -26 -14 -40 -10 -17 4 -22 1 -21 -13 0 -11 3 -14 5 -8 3 7 14 10
24 7 28 -7 16 -20 -27 -28 -36 -7 -37 -8 -14 -16 18 -7 21 -12 12 -23 -9 -11
-9 -16 0 -22 7 -4 9 -3 6 4 -5 6 1 8 15 4 20 -5 19 -7 -14 -16 -20 -6 -40 -14
-43 -18 -4 -4 -16 -3 -26 2 -11 7 -19 6 -21 -1 -4 -12 -76 -20 -83 -9 -3 4 3
7 13 7 9 0 28 1 42 2 22 1 23 3 8 12 -12 6 -24 7 -35 1 -9 -6 -29 -6 -46 -1
-17 5 -33 6 -36 4 -2 -3 1 -5 8 -5 7 0 9 -4 6 -10 -4 -6 1 -7 11 -3 11 4 15 3
10 -5 -6 -11 30 -52 46 -52 4 0 8 -7 8 -15 0 -17 12 -19 26 -5 10 10 44 21 72
22 7 1 20 14 28 30 16 31 20 33 30 16 4 -7 3 -8 -4 -4 -11 6 -14 0 -11 -20 0
-4 -5 -11 -13 -15 -10 -7 -10 -9 0 -9 6 0 12 -7 12 -15 0 -8 5 -15 10 -15 6 0
10 -4 10 -10 0 -5 -10 -10 -22 -10 -19 0 -20 -2 -8 -10 13 -8 13 -10 1 -10
-11 0 -9 -4 5 -15 18 -14 18 -14 -10 -15 -24 0 -27 -2 -16 -15 11 -14 7 -19
-12 -16 -4 0 -4 -7 -1 -16 6 -15 8 -14 21 5 8 13 25 22 40 22 24 0 25 -1 7
-20 -10 -11 -24 -20 -31 -20 -7 0 -14 -6 -17 -12 -3 -10 -8 -9 -22 2 -17 14
-18 13 -12 -2 7 -20 0 -22 -23 -8 -9 5 -17 5 -20 0 -3 -6 -18 -11 -33 -12 -15
-1 -27 -5 -27 -9 0 -4 -10 -5 -22 -2 -13 3 -20 3 -17 -1 4 -4 21 -8 39 -11 38
-5 53 -15 22 -15 -16 0 -20 -4 -15 -17 5 -12 1 -11 -15 5 -17 17 -30 21 -68
17 -26 -2 -51 -9 -55 -17 -7 -10 -9 -10 -9 -1 0 16 -48 13 -62 -4 -6 -7 -26
-13 -45 -13 -52 0 -30 -18 33 -26 37 -4 59 -3 67 5 16 16 34 14 41 -5 5 -12 2
-15 -11 -10 -12 5 -14 4 -8 -2 6 -6 19 -12 30 -15 16 -4 15 -5 -5 -6 -15 0
-31 4 -37 10 -8 8 -13 8 -17 0 -4 -6 0 -11 8 -11 20 0 20 -9 1 -34 -8 -10 -12
-23 -9 -27 3 -5 1 -9 -5 -9 -5 0 -13 5 -16 10 -3 6 -1 10 6 10 10 0 10 3 2 11
-16 16 -37 1 -24 -15 6 -7 8 -16 4 -19 -3 -4 2 -7 13 -7 15 0 16 -2 4 -9 -8
-6 -18 -7 -24 -4 -5 4 -7 -1 -3 -10 4 -12 1 -15 -15 -12 -12 3 -28 -1 -35 -7
-8 -6 -35 -11 -60 -10 -56 0 -97 -23 -89 -51 6 -23 -2 -47 -16 -47 -5 0 -7 4
-4 9 3 5 -3 11 -13 14 -13 3 -18 1 -14 -8 3 -9 -5 -15 -24 -17 -17 -2 -27 -8
-25 -16 1 -7 -4 -20 -13 -28 -13 -14 -15 -13 -16 8 -1 13 -1 27 0 31 1 5 -3 6
-8 3 -13 -8 -34 21 -25 35 4 8 3 9 -5 5 -16 -10 -61 1 -61 15 0 6 4 8 9 5 11
-7 23 22 15 35 -3 5 -14 9 -25 9 -16 0 -18 5 -13 25 4 16 2 25 -6 25 -6 0 -9
-4 -5 -9 3 -5 1 -12 -5 -16 -5 -3 -10 -2 -10 2 0 5 -11 10 -24 11 -13 1 -62
19 -108 41 -47 22 -97 42 -111 45 -15 2 -31 7 -37 11 -6 3 -7 0 -4 -9 3 -9 12
-16 20 -16 8 0 14 -5 14 -11 0 -6 -9 -8 -20 -4 -15 5 -18 3 -14 -8 6 -16 20
-17 42 -3 7 4 16 5 19 2 4 -3 2 -6 -4 -6 -20 0 -9 -30 11 -31 12 0 15 -3 9 -6
-16 -6 -17 -33 -1 -33 6 0 3 -7 -8 -16 -10 -8 -13 -13 -6 -9 6 3 12 3 12 -2 0
-9 57 -31 102 -40 15 -3 25 -10 22 -15 -4 -6 2 -8 15 -3 13 4 21 2 21 -5 0 -6
-4 -9 -9 -5 -5 3 -12 1 -16 -5 -4 -6 -19 -5 -41 5 -20 8 -38 14 -42 14 -21 -3
-32 2 -26 13 4 7 3 8 -4 4 -17 -10 -15 -36 2 -30 22 9 31 -17 11 -32 -20 -15
-39 -9 -28 9 4 8 2 8 -9 -1 -13 -10 -17 -10 -22 3 -6 16 -51 21 -60 6 -3 -4 6
-6 21 -3 20 4 24 2 18 -9 -5 -8 -5 -11 0 -7 4 4 14 3 22 -3 7 -6 13 -8 13 -4
0 5 9 -2 20 -15 23 -27 23 -27 8 -36 -6 -4 -8 -3 -5 3 4 6 0 14 -9 17 -10 4
-13 2 -9 -7 4 -6 -1 -3 -9 7 -14 17 -31 20 -142 21 -97 2 -122 0 -107 -9 11
-6 18 -17 15 -25 -2 -7 -7 -9 -11 -4 -3 6 -26 16 -51 24 -28 9 -44 20 -42 29
3 11 0 11 -14 -1 -16 -13 -16 -14 -1 -17 10 -2 17 -8 17 -13 0 -5 7 -9 15 -9
7 0 19 -8 24 -17 6 -11 11 -13 11 -5 0 10 5 10 20 2 27 -14 17 -29 -15 -23
-19 4 -27 0 -34 -18 -7 -18 -10 -19 -10 -6 -1 9 -8 17 -16 17 -8 0 -15 5 -15
11 0 6 -6 9 -14 6 -10 -4 -13 3 -11 24 3 32 -9 48 -19 24 -3 -8 -15 -15 -26
-15 -13 0 -18 4 -14 11 4 7 -2 9 -17 7 -27 -3 -29 -21 -2 -27 10 -2 23 -11 30
-20 12 -14 12 -14 6 3 -4 13 -2 17 8 14 8 -3 13 -17 12 -32 -2 -23 0 -26 13
-16 11 10 14 9 14 -4 0 -10 4 -15 9 -11 5 3 13 0 17 -6 4 -7 3 -10 -2 -8 -5 3
-22 -9 -39 -25 -16 -16 -24 -26 -16 -21 9 5 12 4 7 -3 -4 -6 -13 -9 -20 -6 -9
3 -16 -5 -20 -21 -6 -23 -11 -26 -33 -20 -26 6 -27 6 -7 -12 11 -10 15 -15 10
-10 -13 10 -28 9 -22 -1 3 -5 -1 -9 -9 -9 -8 0 -12 4 -9 8 2 4 0 10 -5 13 -5
4 -13 -3 -16 -15 -4 -11 -9 -18 -12 -15 -4 3 -12 -2 -20 -12 -12 -15 -13 -14
-1 8 7 14 11 29 10 33 -1 5 2 6 8 2 5 -3 10 1 10 9 0 9 5 16 10 16 6 0 10 4
10 9 0 6 -9 9 -19 8 -11 -1 -17 -6 -14 -14 4 -9 0 -11 -11 -7 -9 3 -13 10 -10
15 3 5 -2 6 -11 2 -13 -4 -14 -8 -4 -14 7 -4 14 -15 15 -23 1 -9 -2 -14 -7
-10 -5 3 -7 9 -4 14 3 4 -4 10 -16 13 -12 3 -22 0 -26 -9 -6 -17 -24 -19 -20
-3 1 6 -6 13 -15 14 -15 3 -16 0 -7 -17 6 -11 8 -32 5 -46 -3 -15 -3 -21 0
-14 7 15 34 16 34 1 0 -5 -6 -7 -12 -3 -10 6 -10 5 0 -8 10 -13 8 -15 -20 -13
-33 1 -78 23 -78 37 0 5 -5 8 -12 8 -6 0 1 -14 17 -30 l30 -31 -39 16 c-34 15
-38 15 -33 1 3 -8 1 -18 -5 -22 -7 -4 -8 -3 -4 4 4 7 3 12 -3 12 -5 0 -13 -4
-16 -10 -10 -16 -25 -12 -19 5 4 10 0 15 -12 15 -14 0 -16 -2 -6 -9 8 -4 13
-11 13 -15 -3 -22 1 -28 19 -23 11 3 20 1 20 -4 0 -5 -8 -9 -17 -9 -15 0 -16
-2 -3 -10 13 -8 12 -10 -2 -10 -10 0 -18 7 -18 17 0 15 -1 15 -18 0 -10 -10
-23 -17 -28 -17 -5 0 1 8 14 18 19 15 21 20 10 35 -11 15 -34 22 -81 26 -5 1
-6 5 -3 10 3 4 -2 15 -12 24 -21 19 -58 26 -55 10 1 -6 -4 -13 -11 -16 -10 -4
-13 2 -11 20 2 21 -1 24 -19 20 -11 -2 -29 -8 -38 -12 -11 -4 -18 -3 -18 4 0
6 8 11 18 11 14 0 14 2 3 9 -9 6 -22 6 -33 0 -14 -7 -16 -6 -12 6 3 8 10 13
14 10 15 -9 30 20 18 35 -8 13 -9 12 -4 -2 3 -12 1 -15 -9 -11 -8 3 -12 9 -9
15 3 5 -3 18 -15 29 -21 20 -21 20 -32 -5 -10 -20 -9 -29 2 -43 11 -14 9 -13
-13 2 -15 11 -32 30 -38 41 -7 12 -22 26 -35 32 -29 13 -40 51 -15 49 10 -1
18 -6 17 -12 -1 -5 4 -9 11 -8 6 2 12 -4 12 -12 0 -9 12 -20 26 -25 36 -14 37
-13 17 14 -10 13 -22 21 -27 18 -5 -3 -6 0 -2 6 4 6 14 9 24 5 10 -3 6 4 -10
19 -29 26 -40 50 -13 28 9 -7 19 -9 23 -5 4 4 1 10 -6 12 -6 3 -9 10 -6 15 5
7 2 8 -5 4 -7 -5 -18 0 -26 10 -8 11 -15 15 -15 10 0 -6 -6 -2 -12 7 -7 9 -30
19 -52 21 -42 5 -60 15 -30 17 10 1 23 1 27 0 5 -1 7 4 4 11 -2 7 -10 12 -16
10 -7 -1 -10 2 -7 7 4 5 0 12 -6 14 -8 3 -6 6 5 6 18 1 24 26 8 35 -17 11 -39
-5 -34 -25 4 -14 0 -19 -13 -19 -16 0 -17 -2 -4 -10 11 -7 5 -8 -20 -4 -40 8
-52 14 -26 14 19 0 48 24 39 33 -3 3 -16 -1 -29 -10 -19 -12 -27 -13 -38 -4
-10 8 -16 9 -21 1 -3 -5 -13 -10 -21 -10 -8 0 -13 4 -10 9 4 5 2 11 -4 13 -6
2 -6 9 0 18 8 13 13 13 31 2 19 -12 21 -12 16 2 -5 13 -3 14 13 3 11 -6 18
-17 16 -24 -3 -7 1 -10 9 -6 8 3 13 9 10 13 -3 5 -1 11 5 15 13 8 13 45 -1 45
-5 0 -7 -6 -3 -12 6 -10 5 -10 -8 -1 -8 7 -19 9 -23 5 -5 -4 -5 -2 -2 4 4 7
-2 14 -13 17 -13 3 -20 0 -20 -9 0 -8 -4 -14 -10 -14 -5 0 -10 5 -10 10 0 6
-5 10 -11 10 -5 0 -7 -5 -3 -12 4 -7 3 -8 -4 -4 -7 4 -12 16 -12 27 0 19 11
25 24 12 10 -11 56 -11 50 -1 -3 4 -12 8 -20 8 -8 0 -14 5 -14 10 0 6 9 10 20
10 11 0 20 -4 20 -10 0 -5 7 -7 15 -4 8 4 15 1 15 -5 0 -6 -4 -11 -10 -11 -5
0 -10 -5 -10 -11 0 -8 4 -8 14 0 8 7 16 8 18 4 3 -4 3 -2 2 5 -4 17 21 15 57
-4 20 -10 29 -21 25 -30 -3 -9 -1 -12 4 -9 6 3 10 -2 10 -12 0 -11 6 -25 13
-32 10 -11 10 -13 0 -7 -7 4 -13 2 -13 -3 0 -6 4 -11 8 -11 4 0 8 -10 9 -21 2
-26 8 -33 23 -24 8 5 8 10 0 20 -10 11 -6 13 17 8 15 -3 38 -7 51 -7 12 -1 22
-6 22 -13 0 -6 8 -9 19 -6 10 3 22 0 25 -6 5 -8 13 -8 26 -1 13 7 21 7 25 0 9
-14 27 -12 23 2 -3 7 -16 13 -31 13 -14 1 -32 7 -40 13 -7 6 -22 10 -32 10
-39 -3 -70 12 -87 41 -12 21 -13 31 -5 35 12 4 -20 10 -38 6 -5 -1 -7 2 -3 6
5 4 -6 16 -23 26 -24 15 -28 22 -19 33 9 11 7 12 -12 8 -13 -3 -20 -3 -17 0 3
4 25 9 49 12 23 3 47 8 53 12 6 4 7 1 2 -6 -5 -8 1 -7 16 2 13 9 35 18 49 20
14 3 38 8 54 12 20 6 27 4 22 -3 -3 -6 -2 -14 4 -17 6 -4 9 -1 8 7 -2 7 5 12
14 12 14 -1 16 2 7 18 -8 15 -14 17 -22 9 -6 -6 -16 -11 -21 -11 -6 0 0 7 12
16 12 8 20 19 18 23 -3 4 15 6 41 4 28 -3 43 -1 39 5 -3 6 -15 8 -25 5 -18 -4
-39 13 -28 23 3 3 21 7 40 10 26 3 37 0 41 -12 5 -14 4 -15 -9 -4 -9 7 -18 11
-20 8 -3 -3 1 -11 9 -17 11 -10 25 -9 61 4 45 15 67 15 188 0 28 -4 37 -2 37
10 0 10 9 15 28 14 16 -1 20 -3 10 -6 -27 -7 1 -30 35 -30 33 0 34 5 5 16 -20
8 -18 10 20 16 28 5 39 11 31 16 -10 6 -5 11 15 19 21 8 32 7 44 -2 12 -10 14
-10 8 0 -5 9 10 12 65 12 56 0 69 3 61 13 -6 6 -34 13 -64 15 -29 1 -68 7 -85
13 -32 10 -53 6 -53 -11 0 -5 12 -11 28 -13 15 -2 6 -3 -20 -1 -26 1 -53 6
-59 10 -18 11 -90 25 -121 24 -18 0 -28 5 -28 14 0 20 -17 29 -26 15 -5 -8 -3
-9 6 -4 9 6 11 4 5 -4 -5 -9 -11 -9 -17 -3 -6 6 -22 7 -41 1 -45 -13 -51 -11
-36 7 11 13 11 15 -2 14 -30 -5 -50 0 -43 11 3 6 17 9 30 6 13 -2 24 0 24 4 0
5 11 4 24 -1 13 -5 27 -6 30 -3 3 4 6 1 6 -7 0 -9 3 -10 13 -1 11 8 18 7 31
-7 9 -10 13 -22 9 -27 -5 -4 -2 -5 5 -1 9 5 11 18 7 37 -5 21 -2 31 9 35 9 3
13 10 10 15 -3 5 7 4 23 -1 l28 -10 -24 20 c-21 18 -17 26 12 21 4 0 7 3 7 9
0 5 7 6 17 3 11 -4 14 -3 9 5 -5 8 -2 10 9 6 8 -4 21 -1 29 5 7 6 16 7 20 3 4
-4 7 -2 6 3 -5 22 1 25 23 15 l22 -11 -22 19 c-22 19 -21 41 1 23 6 -5 22 -11
36 -13 14 -2 24 -9 22 -16 -1 -8 2 -11 7 -8 5 3 20 -3 33 -14 14 -11 28 -17
30 -14 3 3 5 -3 5 -13 0 -36 3 -42 22 -40 11 0 17 5 15 9 -3 5 -9 6 -14 3 -5
-3 -8 3 -7 13 1 23 37 18 37 -5 0 -8 5 -11 10 -8 6 4 8 10 5 15 -3 4 5 6 17 2
16 -4 19 -2 13 9 -8 12 -6 12 8 0 9 -7 26 -11 38 -8 14 4 19 1 16 -7 -3 -7 4
-13 15 -13 18 -2 17 1 -7 23 -26 24 -52 33 -40 14 3 -5 -8 -2 -24 8 -17 9 -26
19 -21 20 17 6 11 19 -10 25 -13 3 -18 10 -14 21 6 14 -5 21 -28 17 -4 0 -5 6
-2 13 3 8 16 13 30 11 13 -1 32 3 41 10 15 11 13 12 -12 8 -17 -2 -46 -5 -65
-5 -19 0 -41 -5 -48 -10 -7 -6 -15 -8 -19 -4 -3 3 -1 6 7 6 10 0 10 3 -1 17
-13 15 -11 16 14 9 15 -3 27 -2 27 3 0 5 -8 12 -17 14 -14 4 -13 5 4 6 12 0
24 -5 26 -11 3 -8 6 -6 6 5 1 15 -10 22 -31 18 -20 -3 -5 18 15 22 12 2 23 5
25 6 2 0 0 -3 -3 -9z m-1632 -50 c-4 -16 -1 -20 16 -17 11 2 24 7 28 12 5 4 1
5 -7 1 -8 -4 -6 0 5 9 18 14 21 14 36 -7 10 -12 15 -27 12 -33 -4 -5 -3 -7 1
-3 11 9 36 -14 28 -26 -3 -5 -1 -7 4 -4 19 12 84 18 84 8 0 -6 -6 -10 -14 -10
-8 0 -18 -4 -21 -10 -7 -11 23 -2 43 13 15 12 16 31 0 21 -7 -5 -8 -3 -3 6 6
10 12 7 25 -10 12 -16 19 -19 24 -11 4 7 16 9 27 6 12 -4 19 -2 19 7 0 7 9 -1
19 -18 23 -37 38 -49 38 -29 0 8 -3 13 -6 12 -3 -1 -6 3 -6 8 0 6 3 9 8 8 4
-2 7 2 7 9 0 9 3 9 12 0 9 -9 16 -8 32 6 21 17 21 17 2 -5 -10 -13 -22 -21
-26 -18 -4 2 -7 -2 -7 -10 0 -12 7 -11 31 5 17 11 30 25 28 31 -2 7 5 9 18 6
11 -3 18 -2 15 3 -3 4 2 10 10 14 8 3 17 0 21 -6 4 -7 3 -8 -4 -4 -7 4 -12 1
-12 -6 0 -20 46 -38 61 -24 9 8 10 8 5 -1 -3 -6 -2 -14 4 -18 5 -3 10 -14 10
-23 0 -15 -2 -15 -11 -2 -9 13 -10 13 -6 0 2 -8 12 -14 22 -12 9 2 14 -1 11
-6 -3 -5 3 -17 13 -26 17 -16 19 -16 25 0 5 14 9 14 24 3 14 -11 15 -11 5 0
-6 7 -9 20 -6 27 3 9 -2 14 -15 14 -18 0 -20 5 -17 30 2 17 -1 30 -6 30 -5 0
-9 5 -9 12 0 6 8 3 20 -7 11 -10 18 -21 15 -24 -2 -4 0 -13 6 -21 6 -10 9 -11
9 -2 0 6 10 12 23 12 17 0 19 -2 7 -10 -13 -8 -13 -11 -1 -22 8 -7 11 -8 8 -2
-8 13 38 28 54 19 5 -4 13 4 18 17 6 13 10 17 10 9 1 -11 6 -10 23 5 18 15 20
16 9 2 -12 -16 -11 -18 18 -14 17 2 31 -1 31 -5 0 -5 -6 -9 -12 -9 -9 0 -8 -4
2 -11 12 -8 11 -9 -5 -6 -11 2 -19 9 -17 18 2 8 0 11 -4 6 -15 -14 -11 -45 4
-39 10 3 13 1 8 -6 -4 -7 -19 -12 -34 -12 -15 0 -34 -5 -42 -11 -11 -8 -5 -9
25 -4 22 4 50 16 63 28 19 18 26 19 42 9 17 -10 20 -10 20 3 0 8 -9 15 -20 15
-13 0 -18 5 -14 15 5 11 10 12 25 2 10 -6 19 -17 19 -23 0 -12 22 -24 42 -24
7 0 6 5 -1 14 -9 11 -9 16 0 22 8 4 9 3 5 -4 -4 -7 -1 -12 9 -12 10 0 14 5 9
13 -5 8 -4 9 4 2 18 -17 18 -59 0 -77 -19 -19 -43 -25 -33 -8 3 6 -2 10 -11
10 -16 0 -16 -1 -1 -18 20 -22 22 -33 5 -31 -25 3 -38 -1 -38 -12 0 -8 6 -7
17 2 15 13 15 12 2 -8 -12 -21 -29 -28 -52 -24 -5 1 -7 -4 -4 -11 2 -7 10 -12
16 -11 6 2 11 -2 11 -8 0 -6 -8 -8 -19 -4 -11 3 -23 0 -27 -6 -5 -8 -3 -9 6
-4 9 5 11 4 6 -3 -11 -18 -26 -14 -27 6 0 14 -2 14 -7 2 -4 -8 -13 -16 -20
-18 -8 -1 -11 2 -6 9 5 8 2 10 -8 6 -9 -3 -21 0 -28 6 -10 9 -11 9 -6 0 3 -6
3 -13 -1 -16 -5 -2 -3 -2 4 -1 6 2 14 -3 17 -11 3 -10 0 -12 -12 -8 -28 10
-42 25 -35 37 3 6 -5 0 -18 -14 -21 -21 -24 -22 -27 -7 -2 9 -8 17 -14 17 -6
0 -8 -3 -5 -7 12 -11 -28 -32 -63 -33 -26 0 -31 -3 -20 -10 12 -8 10 -10 -8
-10 -13 0 -33 -5 -44 -11 -16 -9 -19 -8 -13 2 6 9 3 10 -10 5 -15 -5 -16 -4
-6 8 10 11 8 14 -11 13 -13 0 -31 3 -40 7 -16 7 -17 5 -7 -24 10 -27 9 -33 -7
-45 -10 -7 -22 -11 -26 -9 -4 3 -5 -2 -2 -10 3 -9 1 -16 -4 -16 -6 0 -12 -8
-14 -17 -3 -16 -6 -15 -27 6 l-24 24 7 -28 c6 -24 5 -27 -11 -21 -10 4 -40 9
-68 12 -40 3 -44 2 -19 -5 61 -16 70 -21 54 -31 -11 -7 -11 -10 -2 -10 7 0 15
7 18 15 4 8 10 12 15 9 5 -3 7 -10 4 -15 -10 -15 25 -23 38 -9 9 10 9 11 -2 5
-10 -6 -12 -4 -7 4 6 9 11 9 22 0 15 -12 94 -19 94 -8 0 4 18 7 41 7 28 0 37
-4 30 -11 -6 -6 -33 -10 -61 -10 -27 0 -50 -4 -50 -9 0 -5 -21 -9 -47 -8 -70
3 -82 0 -58 -11 15 -7 7 -8 -30 -5 -27 2 -44 1 -37 -1 6 -3 9 -10 6 -15 -4 -6
-2 -8 4 -4 6 3 13 2 17 -4 3 -5 -1 -10 -11 -10 -14 0 -14 -2 -3 -16 7 -8 21
-13 31 -11 10 3 18 1 18 -5 0 -5 5 -6 10 -3 6 4 8 10 5 14 -2 5 7 6 20 3 14
-2 25 -9 25 -14 0 -6 7 -8 15 -4 8 3 15 1 15 -3 0 -5 9 -7 20 -4 12 3 20 0 20
-6 0 -7 -8 -11 -17 -9 -11 2 -19 -5 -21 -17 -2 -17 -1 -17 7 -5 9 12 13 13 20
2 4 -8 11 -13 15 -13 38 5 33 -10 -12 -36 -21 -12 -39 -29 -39 -37 0 -20 2
-20 20 -1 13 12 15 12 19 -3 4 -14 -3 -17 -38 -20 -34 -2 -43 2 -46 15 -3 15
-6 14 -17 -6 -7 -13 -9 -21 -4 -18 5 3 15 2 23 -4 12 -7 11 -9 -5 -10 -11 0
-14 -3 -7 -6 17 -7 15 -20 -3 -20 -8 0 -15 7 -15 14 0 11 -3 11 -15 1 -38 -31
-54 -52 -48 -61 3 -5 13 0 22 12 16 21 61 37 61 22 0 -4 7 -16 15 -27 14 -19
14 -19 9 1 -3 12 5 31 19 47 22 25 24 26 35 8 9 -14 8 -21 -3 -30 -8 -7 -12
-16 -9 -21 3 -5 -1 -9 -8 -10 -10 0 -10 -2 -1 -6 10 -3 9 -8 -2 -20 -19 -19
-11 -33 15 -26 11 3 18 9 15 13 -3 5 -1 11 5 15 6 4 8 11 5 16 -8 12 -2 11 29
-4 14 -8 22 -18 18 -22 -4 -4 3 -2 16 4 15 8 21 18 18 28 -4 9 -1 13 6 10 7
-2 12 -10 10 -16 -1 -7 2 -10 8 -6 6 3 8 11 5 16 -10 15 35 10 52 -6 14 -14
13 -15 -13 -10 l-29 6 30 -14 c17 -8 36 -21 44 -30 7 -9 18 -14 24 -10 6 4 7
1 3 -6 -6 -9 -12 -8 -26 4 -12 11 -20 13 -25 6 -3 -6 0 -11 7 -12 7 0 4 -4 -7
-9 -17 -7 -17 -9 -2 -9 9 -1 17 -7 17 -13 0 -10 3 -9 9 1 7 11 11 10 20 -7 13
-25 14 -35 2 -28 -10 6 -25 -24 -16 -32 3 -3 5 1 5 8 0 7 3 10 7 7 9 -10 34
14 26 26 -3 6 -1 7 5 3 7 -4 12 -14 12 -22 0 -9 -5 -12 -12 -8 -8 5 -9 2 -5
-9 3 -9 2 -19 -3 -22 -16 -10 -12 -38 5 -31 8 3 15 1 15 -3 0 -5 8 -7 19 -4
10 3 22 -1 26 -8 5 -8 4 -10 -3 -5 -7 4 -12 2 -12 -3 0 -6 7 -11 16 -11 8 0
13 -4 9 -9 -3 -5 -1 -13 5 -16 6 -4 9 -1 8 6 -2 6 3 14 11 17 10 3 12 0 8 -11
-3 -9 -2 -19 3 -22 6 -4 10 -2 10 3 0 6 13 6 35 -1 19 -6 35 -14 35 -19 0 -5
-5 -6 -11 -2 -7 4 -9 -2 -7 -16 2 -15 11 -24 26 -27 14 -2 21 1 17 7 -4 6 9 2
28 -9 19 -11 37 -17 40 -14 3 2 4 -3 3 -14 -2 -10 -10 -18 -19 -18 -20 0 -35
-15 -16 -16 8 -1 17 -1 21 0 13 2 3 -38 -12 -52 -12 -10 -12 -9 -2 4 17 22 7
27 -38 19 -24 -4 -43 -3 -51 4 -9 8 -10 8 -5 -1 3 -6 0 -13 -6 -16 -10 -3 -10
-9 0 -26 12 -20 11 -21 -5 -13 -10 5 -23 8 -28 5 -6 -2 -21 6 -33 17 -12 12
-22 16 -22 10 0 -19 4 -25 17 -22 7 2 13 -1 14 -5 0 -4 2 -17 4 -28 l4 -20
-16 20 c-15 19 -15 19 -8 -4 5 -16 4 -21 -4 -17 -18 12 -51 -4 -51 -24 0 -10
-4 -21 -10 -25 -18 -11 2 -35 30 -35 36 0 42 10 19 32 -12 12 -19 13 -23 5 -3
-9 -5 -9 -5 0 -1 19 16 24 28 9 7 -8 19 -13 29 -11 9 1 11 0 5 -2 -10 -3 -10
-10 -3 -24 9 -16 6 -22 -19 -36 -25 -15 -27 -19 -13 -29 13 -10 12 -11 -10
-11 -18 0 -25 4 -21 13 4 10 0 12 -11 8 -9 -3 -16 -11 -16 -17 0 -8 -3 -8 -11
0 -6 6 -17 9 -23 7 -13 -5 -54 34 -46 44 3 3 -3 6 -12 8 -24 3 -23 -12 3 -29
11 -8 16 -16 10 -18 -5 -2 -13 -17 -17 -33 -4 -18 -3 -27 3 -23 5 3 10 1 10
-6 0 -7 -12 -12 -26 -11 -27 2 -28 5 -15 38 6 15 4 18 -7 14 -10 -4 -15 1 -16
13 -1 11 5 19 15 20 14 0 13 2 -3 8 -20 8 -57 -16 -49 -31 2 -3 -4 -5 -13 -4
-10 2 -18 9 -18 17 0 8 6 13 13 11 8 -1 11 2 6 9 -5 9 -13 6 -25 -10 -10 -12
-23 -20 -29 -16 -5 3 -10 2 -10 -4 0 -5 6 -12 13 -14 7 -3 5 -6 -5 -6 -12 -1
-18 6 -18 20 0 11 -4 17 -10 14 -15 -9 -40 13 -40 35 0 9 -18 29 -41 44 -22
15 -39 32 -37 38 2 6 -7 23 -21 37 -25 24 -29 25 -141 21 -160 -5 -188 -4
-245 4 -155 22 -174 29 -175 66 0 34 -50 55 -66 28 -5 -7 -2 -8 7 -3 11 6 12
5 1 -6 -15 -17 -134 -17 -140 0 -2 6 -10 11 -18 11 -8 0 -22 9 -31 20 -10 11
-27 20 -40 20 -24 0 -53 24 -53 45 0 7 -4 15 -8 17 -4 2 -18 20 -30 40 -21 33
-25 36 -52 28 -17 -5 -30 -7 -30 -4 0 3 -9 0 -20 -6 -11 -6 -18 -16 -14 -22 4
-7 -1 -8 -17 -3 -22 7 -22 7 -5 -10 9 -10 25 -35 34 -56 9 -22 20 -39 24 -39
18 0 68 -64 63 -80 -3 -10 1 -23 10 -30 8 -7 15 -18 15 -26 0 -7 4 -15 9 -18
5 -4 7 3 4 13 -6 24 14 64 30 58 15 -5 19 -51 7 -82 -8 -21 -6 -24 22 -30 17
-4 33 -3 37 1 8 11 52 13 45 2 -9 -15 20 -8 51 11 17 10 45 33 63 50 35 33 47
37 57 21 3 -5 1 -10 -4 -10 -40 0 44 -86 97 -100 25 -6 58 -25 77 -44 36 -36
35 -43 -12 -99 -13 -16 -20 -34 -17 -39 4 -6 3 -9 -2 -6 -5 3 -19 2 -31 -3
-18 -6 -23 -16 -23 -42 0 -30 -4 -35 -28 -40 -17 -4 -33 -16 -40 -31 -8 -18
-19 -26 -37 -26 -18 0 -28 -7 -35 -26 -9 -23 -15 -26 -45 -22 -19 2 -35 1 -35
-3 0 -4 -15 -10 -34 -13 -34 -6 -58 -27 -69 -58 -3 -10 -18 -20 -32 -24 -14
-3 -25 -10 -25 -15 0 -6 -9 -5 -20 1 -11 6 -20 7 -20 2 0 -9 -79 -37 -94 -33
-5 1 -6 -5 -3 -14 5 -11 0 -15 -21 -15 -16 0 -32 -4 -37 -9 -15 -12 -77 -32
-70 -21 14 22 -15 16 -46 -9 -46 -38 -94 -48 -119 -26 -11 10 -17 22 -14 27 3
5 1 21 -4 36 -6 15 -13 40 -16 55 -4 15 -11 25 -16 22 -6 -4 -5 5 1 19 14 30
0 72 -40 119 -14 17 -37 51 -51 76 -14 25 -37 51 -51 58 -37 18 -60 57 -64
106 -4 57 -29 101 -70 126 -19 11 -35 27 -35 36 0 33 -112 185 -136 185 -11 0
-12 4 -4 19 5 11 10 30 9 43 -1 22 -2 21 -12 -5 -6 -16 -17 -25 -24 -23 -18 7
-26 -11 -14 -31 7 -13 10 -14 11 -4 0 8 3 12 6 8 3 -3 3 -11 -1 -17 -8 -14
-65 36 -65 57 0 7 -4 13 -9 13 -5 0 -13 9 -16 20 -4 11 -10 18 -15 15 -10 -6
11 -51 37 -80 16 -18 53 -88 53 -100 0 -3 -7 -5 -16 -5 -8 0 -13 -4 -9 -10 3
-5 12 -7 19 -4 8 3 25 -18 45 -55 17 -33 36 -63 40 -66 5 -3 7 -14 4 -25 -4
-14 6 -31 34 -58 46 -43 59 -74 67 -156 4 -46 10 -62 28 -74 42 -30 66 -63 73
-100 7 -41 44 -116 45 -92 0 13 1 13 10 0 5 -8 14 -15 19 -15 17 0 71 -45 71
-59 0 -21 -41 -28 -55 -10 -9 13 -11 4 -8 -40 1 -32 -2 -58 -9 -62 -7 -5 -9 1
-6 18 2 13 -1 29 -7 35 -7 6 -11 22 -10 35 1 12 3 29 4 36 0 7 6 10 13 6 7 -4
8 -3 4 5 -4 6 -12 8 -18 5 -7 -5 -9 -2 -6 8 7 16 -28 43 -37 28 -3 -5 -1 -11
5 -15 6 -4 8 -11 4 -16 -11 -18 -26 3 -19 29 5 21 4 23 -8 14 -8 -7 -16 -9
-19 -6 -3 3 -9 0 -14 -7 -4 -7 -3 -10 3 -6 5 3 10 0 10 -8 0 -10 -5 -11 -19
-4 -10 6 -28 7 -38 4 -12 -4 -20 -2 -20 5 0 6 4 9 8 6 5 -3 9 1 9 9 0 13 -3
12 -18 -1 -10 -9 -16 -21 -12 -27 3 -6 1 -7 -6 -3 -6 4 -9 12 -6 17 4 5 -3 9
-14 9 -11 0 -24 -7 -29 -16 -7 -13 -10 -10 -15 16 -6 30 -8 31 -24 15 -12 -13
-13 -19 -4 -25 10 -5 9 -9 -4 -13 -9 -4 -13 -3 -10 2 3 5 1 12 -5 16 -5 3 -10
2 -10 -4 0 -6 -7 -7 -17 -4 -10 4 -14 2 -9 -5 3 -6 2 -13 -4 -17 -5 -3 -10 -1
-10 5 0 6 -5 8 -11 5 -6 -4 -8 -13 -5 -21 3 -8 1 -14 -5 -14 -6 0 -7 -4 -4
-10 3 -5 1 -10 -5 -10 -6 0 -9 8 -6 18 3 9 1 24 -5 32 -9 12 -10 11 -6 -7 3
-13 1 -25 -3 -28 -5 -3 -10 5 -12 17 -3 20 -5 19 -15 -10 -9 -23 -9 -31 -1
-26 7 5 9 2 5 -9 -3 -9 -1 -19 5 -23 7 -4 2 -13 -13 -24 -17 -13 -29 -16 -47
-9 -34 13 -78 11 -91 -4 -6 -8 -8 -16 -5 -20 3 -3 -3 -3 -15 0 -11 3 -29 2
-38 -2 -10 -5 -21 -7 -25 -7 -5 1 -9 -5 -9 -13 -3 -31 -4 -35 -21 -55 -10 -11
-23 -20 -30 -20 -9 0 -8 3 2 10 8 5 12 10 8 10 -18 0 -24 2 -35 12 -8 6 -24 6
-47 -1 -24 -6 -38 -6 -42 1 -4 6 -10 6 -17 -1 -8 -8 -16 -6 -29 6 -20 18 -25
4 -6 -15 7 -7 9 -12 4 -12 -13 0 -38 29 -32 39 3 5 -1 14 -8 20 -11 9 -16 9
-22 0 -4 -7 -3 -9 4 -5 6 3 13 2 16 -3 10 -16 -11 -22 -24 -7 -13 16 2 56 22
56 7 0 6 5 -2 15 -7 8 -19 15 -26 15 -8 0 -14 6 -14 12 0 7 -7 2 -17 -11 -15
-23 -15 -25 2 -37 10 -8 14 -14 8 -14 -7 0 -15 5 -18 10 -4 7 -13 6 -26 -1
-20 -10 -20 -10 -4 21 9 18 21 28 27 24 7 -4 8 -3 4 4 -10 17 -36 15 -43 -4
-3 -8 -12 -13 -19 -10 -8 3 -14 2 -14 -3 0 -9 -77 2 -87 13 -3 3 -14 -4 -24
-16 l-19 -21 0 21 c0 25 -10 28 -29 10 -11 -11 -13 -10 -7 2 4 8 1 7 -7 -3 -8
-10 -21 -17 -29 -16 -26 3 -36 -1 -42 -18 -7 -17 -6 -17 9 -2 16 15 65 15 65
0 0 -16 -13 -19 -30 -9 -14 9 -22 8 -35 -5 -9 -9 -22 -17 -28 -17 -9 0 -9 2 0
8 7 4 9 13 5 19 -6 9 -15 9 -36 -2 -36 -19 -57 -19 -82 0 -23 17 -69 20 -58 4
4 -8 -1 -9 -17 -4 l-24 8 20 -23 20 -23 -22 12 c-28 14 -63 14 -63 -1 0 -6 -9
0 -21 13 l-21 24 7 -30 c4 -20 3 -26 -3 -17 -7 11 -10 11 -15 -2 -4 -9 -2 -16
2 -16 15 0 5 -32 -13 -42 -15 -9 -16 -7 -4 11 16 26 3 39 -23 23 -18 -12 -21
-11 -26 7 -5 19 -15 25 -35 22 -5 0 -8 3 -8 8 0 4 -11 7 -25 6 -19 -3 -25 1
-25 17 0 15 -5 19 -20 15 -12 -3 -18 -1 -14 5 4 6 1 9 -7 6 -19 -6 -18 -34 1
-30 11 3 11 -1 -3 -16 -18 -20 -23 -37 -8 -28 14 9 21 -20 8 -33 -19 -19 -35
-13 -30 13 4 21 2 24 -15 19 -11 -2 -29 0 -41 6 -18 10 -21 9 -21 -10 0 -16 5
-20 20 -16 11 3 23 0 27 -5 4 -7 1 -8 -6 -4 -8 5 -14 0 -18 -13 -3 -11 -10
-18 -16 -14 -6 4 -7 1 -3 -6 6 -9 13 -8 27 5 18 16 19 16 19 -2 0 -11 6 -26
13 -34 10 -12 9 -12 -3 -4 -27 19 -58 14 -63 -9 -3 -12 -4 -6 -3 13 1 20 5 41
9 47 4 6 0 16 -8 23 -15 12 -20 4 -16 -22 2 -12 -17 -9 -25 4 -4 6 -2 14 4 16
16 5 3 32 -17 32 -11 1 -9 5 8 14 19 10 21 15 10 22 -21 13 -51 16 -44 4 3 -5
14 -10 23 -10 14 0 13 -2 -3 -13 -10 -8 -15 -19 -11 -25 10 -17 -1 -15 -23 5
-11 9 -17 21 -14 26 4 6 0 8 -10 4 -9 -3 -30 6 -53 24 -39 31 -49 34 -58 20
-3 -5 -17 -11 -31 -13 -25 -5 -25 -5 -8 16 11 13 12 16 3 10 -8 -6 -26 -10
-40 -8 -14 2 -36 -5 -50 -16 l-25 -19 29 5 c16 3 33 7 38 10 4 3 8 0 8 -5 0
-6 -5 -11 -11 -11 -5 0 -7 -6 -3 -12 6 -10 4 -10 -7 -2 -8 5 -20 9 -26 8 -7
-1 -17 -2 -23 -3 -5 0 -8 -7 -6 -13 1 -7 1 -10 -1 -5 -3 4 -10 7 -17 7 -7 0
-21 11 -31 24 -17 22 -20 23 -30 9 -12 -16 -40 -9 -30 8 4 5 0 9 -7 9 -7 0 -2
7 10 16 12 8 22 22 22 30 0 17 -12 18 -28 2 -8 -8 -15 -8 -27 2 -12 10 -18 10
-30 0 -8 -7 -12 -16 -9 -21 3 -5 -2 -6 -10 -3 -9 3 -16 11 -16 16 0 6 -8 4
-17 -3 -15 -12 -16 -12 -8 1 5 9 0 7 -14 -4 -16 -15 -20 -16 -16 -5 6 17 -19
20 -43 5 -6 -4 -12 -3 -12 3 0 6 -7 8 -15 5 -9 -4 -15 0 -15 7 0 11 -3 11 -10
-1 -8 -12 -10 -12 -10 -1 0 8 8 20 18 27 16 13 16 13 0 14 -12 0 -15 5 -11 18
3 9 3 14 -1 10 -7 -6 -14 -30 -15 -55 -1 -16 -33 -17 -49 -1 -7 7 -8 17 -2 29
13 24 0 30 -38 19 -19 -5 -34 -5 -37 1 -4 5 -18 7 -33 4 -25 -5 -25 -5 -4 4
26 12 30 23 5 14 -10 -3 -15 -3 -11 2 8 8 -36 35 -56 34 -6 0 -1 -4 12 -10 19
-7 21 -11 10 -23 -8 -9 -19 -11 -29 -5 -9 4 -19 5 -23 1 -4 -3 -17 -7 -29 -7
-14 0 -21 -5 -19 -14 3 -12 1 -12 -14 0 -10 8 -15 9 -11 2 5 -7 1 -11 -10 -11
-10 0 -31 -3 -48 -7 -25 -7 -28 -6 -20 6 6 8 3 7 -6 -3 -17 -18 -85 -23 -95
-7 -2 5 -11 6 -18 3 -8 -3 -16 5 -20 21 -4 14 -11 23 -16 20 -6 -4 1 10 15 30
13 21 22 41 19 46 -3 5 -2 9 3 9 4 0 9 10 10 23 1 12 5 39 9 59 4 24 1 47 -8
65 -11 22 -12 35 -4 52 9 20 6 27 -17 47 -22 19 -26 29 -21 51 3 16 11 33 18
38 6 6 19 26 28 46 9 20 30 52 46 70 16 19 30 36 29 39 -1 22 31 80 49 89 13
6 30 26 38 45 11 26 22 36 48 41 18 4 55 21 82 39 27 17 52 30 56 29 4 -1 6 9
4 23 -1 13 2 22 6 19 5 -3 11 4 15 15 3 11 10 20 14 20 5 0 23 3 41 7 24 4 31
3 26 -5 -5 -8 -2 -10 8 -6 9 3 16 16 16 28 0 17 2 18 10 6 8 -13 10 -13 10 1
0 11 9 16 28 16 47 1 71 7 69 18 -1 5 8 9 20 9 13 -1 20 3 16 8 -3 6 1 15 8
20 12 8 11 9 -1 5 -8 -2 -23 0 -33 5 -13 7 -27 2 -55 -20 -37 -30 -112 -66
-112 -55 0 3 -10 -2 -22 -13 -12 -10 -18 -14 -15 -7 4 7 -1 14 -13 18 -20 7
-28 25 -10 25 5 0 9 5 7 11 -1 6 7 16 18 22 28 17 48 37 36 37 -5 0 -13 -4
-16 -10 -3 -5 -11 -10 -17 -10 -6 0 -3 8 8 19 10 10 25 16 33 13 8 -3 12 -1 8
5 -4 6 0 14 9 17 22 9 30 0 15 -18 -8 -10 -9 -16 -1 -21 5 -3 10 0 10 7 0 7
11 18 25 25 16 7 23 7 18 1 -3 -7 -1 -8 6 -4 6 4 18 2 26 -4 12 -10 18 -10 30
0 19 16 9 33 -16 27 -11 -3 -19 -1 -19 5 0 5 -10 6 -22 3 -18 -5 -20 -4 -8 4
8 6 22 11 31 11 9 0 21 6 27 13 10 12 77 15 89 4 11 -12 -8 -25 -35 -23 -25 2
-28 -1 -28 -36 -1 -25 3 -37 10 -35 6 2 11 8 11 13 2 24 17 54 26 48 5 -3 7
-9 5 -13 -7 -11 27 -10 41 1 10 8 9 13 -2 25 -18 17 -19 33 -4 33 5 0 7 5 4
10 -4 6 -11 7 -17 4 -7 -4 -8 -2 -4 5 4 6 12 9 17 6 5 -4 17 -2 26 4 13 7 26
5 46 -7 24 -15 29 -15 37 -2 5 8 10 11 10 7 0 -4 9 1 20 11 17 15 49 29 110
47 48 14 61 15 77 6 15 -9 13 -10 -17 -11 -21 0 -30 -4 -25 -9 12 -11 106 4
115 18 3 6 44 9 92 7 48 -1 85 1 82 6 -6 10 20 11 30 1 16 -16 78 -12 112 8
20 11 43 18 50 15 8 -3 11 0 8 8 -3 7 2 13 11 13 8 0 18 -11 21 -24 6 -23 7
-23 28 -6 21 18 21 18 4 -3 -22 -25 -23 -40 -3 -48 25 -9 17 -43 -16 -69 -37
-29 -31 -52 10 -43 19 5 22 4 11 -4 -13 -8 -13 -10 3 -10 9 0 17 -4 17 -8 0
-13 63 -32 106 -32 59 0 117 -24 132 -54 8 -15 24 -28 40 -31 66 -14 109 -28
140 -47 l34 -21 26 21 c21 15 26 27 24 52 -3 34 14 64 29 54 5 -3 9 0 9 5 0 6
5 11 11 11 5 0 8 -4 5 -9 -7 -11 34 -2 51 11 16 13 70 1 77 -17 2 -7 26 -17
53 -21 26 -4 51 -11 54 -16 4 -5 28 -11 55 -13 27 -2 77 -11 112 -20 34 -9 76
-14 92 -11 17 2 30 0 30 -5 0 -5 6 -9 14 -9 7 0 20 -9 27 -20 14 -20 15 -20
49 10 34 29 50 34 96 31 11 -1 33 8 49 21 16 12 26 17 22 10 -6 -8 -3 -10 8
-6 11 5 13 10 6 17 -7 7 -7 15 0 24 12 14 35 17 42 6 2 -5 2 -2 0 6 -3 10 5
12 32 8 19 -3 35 -2 35 4 0 5 -9 9 -20 9 -11 0 -20 7 -20 16 0 8 -4 12 -10 9
-5 -3 -10 1 -10 9 0 8 5 18 11 21 6 4 8 13 5 20 -3 8 4 17 15 20 21 7 26 25 7
25 -9 0 -8 4 2 10 13 8 13 11 1 19 -11 7 -9 10 8 16 22 7 22 7 4 28 -10 11
-12 17 -5 13 6 -4 12 -3 12 2 0 21 40 50 61 45 13 -4 20 -2 16 3 -3 5 3 10 14
10 11 0 19 -7 19 -18 0 -9 5 -20 12 -24 7 -5 9 -1 6 13 -6 21 -4 22 40 8 18
-6 20 -10 10 -16 -8 -5 0 -7 22 -5 19 1 61 0 92 -4 31 -3 54 -2 52 2 -3 4 -1
8 5 8 5 0 13 -5 16 -10 4 -6 16 -8 27 -4 13 4 26 -1 40 -16 15 -16 23 -19 28
-10 5 8 10 9 14 2 3 -6 2 -13 -4 -17 -15 -9 -2 -25 15 -18 9 3 15 -1 15 -10 0
-9 10 -23 22 -31 12 -9 17 -16 10 -16 -7 0 -10 -10 -8 -22 1 -13 6 -21 9 -18
3 3 13 -4 22 -15 9 -11 13 -13 9 -5 -4 8 -13 22 -21 31 -11 14 -11 18 1 28 10
8 16 9 21 1 8 -13 58 -13 72 1 8 8 13 8 18 -1 4 -7 -5 -16 -24 -23 -29 -11
-44 -37 -20 -37 5 0 7 -6 3 -12 -5 -8 -1 -8 12 2 29 22 30 24 12 17 -21 -7
-34 9 -13 17 8 3 21 -1 29 -9 7 -8 16 -12 19 -9 3 3 8 1 12 -5 5 -10 -14 -16
-37 -12 -18 3 -6 -21 12 -26 11 -3 20 -9 20 -14 0 -5 3 -8 8 -7 12 4 62 -33
62 -46 0 -18 42 -50 66 -51 18 0 20 2 11 17 -7 11 -15 14 -22 8 -8 -7 -12 -5
-12 5 0 8 7 15 16 16 9 0 4 6 -12 13 -15 7 -25 15 -21 19 4 3 -3 5 -15 2 -23
-4 -30 18 -9 31 7 4 8 3 4 -4 -4 -7 -2 -12 4 -12 7 0 10 6 8 13 -3 6 -9 12
-15 12 -5 0 -31 17 -57 37 -41 32 -45 38 -30 46 15 8 13 12 -15 27 -18 9 -30
12 -27 6 4 -6 4 -11 -1 -12 -4 0 -19 -2 -31 -5 -16 -3 -22 0 -19 8 2 7 12 11
23 10 12 -3 4 10 -25 37 -24 22 -47 38 -52 36 -4 -3 -13 4 -19 15 -6 11 -18
20 -28 20 -12 0 -14 2 -4 8 9 7 8 13 -8 27 -24 21 -26 43 -5 51 21 8 19 21 -5
29 -11 4 -18 11 -15 16 4 5 0 9 -7 10 -7 0 -3 4 10 9 41 17 90 -17 83 -59 -1
-7 2 -10 8 -6 6 3 11 2 11 -3 0 -5 10 -7 23 -5 23 5 44 -11 102 -78 24 -27 37
-34 65 -33 19 1 40 -3 45 -10 11 -13 24 -16 78 -22 21 -2 35 1 32 5 -4 8 3 8
34 2 2 -1 -3 -9 -10 -18 -13 -17 -13 -17 6 -3 11 8 28 23 37 34 10 10 29 20
43 22 14 1 38 11 53 21 15 10 34 21 42 25 11 5 11 7 2 7 -7 1 -10 6 -7 11 11
18 -14 11 -35 -10 -22 -22 -79 -27 -82 -7 -1 6 -2 32 -2 57 -1 37 -5 46 -26
57 -22 11 -23 13 -5 13 18 1 17 3 -8 24 -45 37 -26 55 61 59 27 1 30 17 2 17
-18 0 -25 15 -21 42 2 17 -52 3 -57 -14 -9 -36 -25 -18 -18 22 6 37 5 40 -17
40 -27 0 -62 30 -72 60 -3 11 -13 20 -20 20 -8 0 -17 5 -21 11 -5 8 3 10 25 7
25 -4 31 -1 31 14 0 11 6 26 14 34 16 16 40 19 31 4 -4 -6 7 -10 27 -10 33 1
33 1 9 14 -21 12 -22 14 -5 20 11 4 20 3 22 -3 2 -6 8 -11 13 -11 5 0 4 9 -3
19 -7 11 -16 18 -20 15 -4 -3 -5 3 -1 12 6 16 7 15 20 -2 11 -15 13 -15 13 -2
0 35 -61 52 -129 37 -21 -5 -40 -4 -45 1 -7 7 -5 10 4 10 9 0 8 6 -6 22 -10
13 -12 17 -4 11 24 -18 74 -11 78 11 2 11 0 16 -6 12 -6 -3 -13 -3 -16 2 -2 4
6 8 20 8 13 0 24 -1 24 -2 0 -2 -4 -14 -10 -28 -6 -17 -6 -27 2 -32 7 -4 8 -3
4 4 -7 12 30 36 44 27 5 -3 11 -1 15 5 4 6 12 7 22 1 9 -5 29 -5 45 0 17 5 26
4 23 -2 -4 -5 2 -9 12 -9 10 0 24 -9 31 -20 7 -11 17 -20 24 -20 7 0 4 6 -7
13 -11 9 -15 19 -10 27 5 8 4 11 -2 7 -6 -4 -19 3 -29 16 -16 18 -16 19 -2 8
10 -7 27 -11 39 -8 12 3 18 3 15 0 -3 -3 1 -12 9 -19 15 -16 29 -19 20 -5 -3
5 5 13 17 17 13 4 26 12 31 18 4 6 5 -5 2 -24 l-5 -35 15 28 c9 15 21 27 28
28 7 0 3 4 -8 9 -17 7 -17 9 -3 9 10 1 22 -8 28 -18 5 -11 18 -18 27 -16 10 2
18 4 18 5 0 1 17 3 37 4 21 1 40 5 44 8 9 10 -6 29 -17 23 -5 -4 -9 -1 -9 4 0
6 5 11 11 11 5 0 7 5 3 12 -4 7 -3 8 5 4 6 -4 9 -11 6 -16 -3 -4 3 -14 12 -21
12 -10 15 -10 9 -1 -5 8 -1 11 16 8 13 -2 22 -10 20 -17 -1 -8 5 -5 13 5 8 11
15 28 15 38 0 10 4 18 9 18 5 0 7 -9 4 -20z m-9671 -250 c4 0 14 -13 23 -29
16 -31 7 -48 -20 -37 -8 3 -17 1 -20 -4 -4 -6 8 -11 24 -11 17 -1 36 -2 41 -3
17 -2 13 -20 -7 -27 -14 -6 -14 -8 -2 -8 8 -1 20 4 27 11 9 9 13 4 18 -21 4
-18 10 -28 14 -21 5 8 11 6 20 -5 7 -8 9 -15 4 -15 -5 0 -2 -5 6 -10 13 -8 12
-10 -2 -10 -10 0 -18 5 -18 11 0 5 -4 7 -10 4 -5 -3 -12 6 -16 21 -5 18 -9 22
-15 13 -4 -8 -3 -16 3 -20 7 -4 7 -9 -1 -13 -6 -4 -8 -12 -5 -18 4 -6 -1 -6
-14 1 -27 14 -32 14 -32 -2 0 -19 -31 -44 -53 -44 -9 0 -15 2 -12 5 7 7 -14
42 -25 42 -6 0 -9 -5 -7 -12 3 -17 -28 -21 -44 -5 -8 7 -20 12 -27 9 -6 -2
-12 3 -12 12 0 9 4 16 9 16 10 0 27 39 23 53 -1 4 6 3 17 -2 10 -6 21 -7 25
-4 3 3 6 1 6 -5 0 -7 11 -12 23 -12 45 0 41 15 -13 53 l-24 17 31 0 c27 0 31
3 26 18 -4 9 -11 20 -17 25 -7 5 -6 10 4 17 13 8 12 10 -2 10 -21 0 -22 6 -6
24 10 10 16 9 32 -6 11 -10 23 -18 28 -18z m-252 -161 c0 -5 -6 -7 -12 -4 -7
4 -5 0 5 -8 24 -20 21 -30 -4 -16 -16 8 -24 8 -33 -2 -8 -9 -8 -10 2 -5 6 4
12 3 12 -1 0 -5 13 -23 29 -41 20 -21 25 -32 15 -32 -8 0 -14 4 -14 8 0 5 -7
17 -15 28 -14 18 -15 17 -6 -7 7 -18 6 -30 -2 -39 -9 -10 -9 -11 0 -6 16 9 56
-12 48 -25 -4 -5 -1 -9 6 -9 7 0 9 -3 6 -6 -4 -4 -14 -1 -24 7 -9 8 -14 9 -10
2 9 -14 -32 -45 -47 -36 -8 5 -8 3 0 -8 12 -16 13 -39 2 -39 -38 0 -52 3 -35
7 10 3 17 14 16 26 0 21 -1 21 -9 2 l-9 -20 0 20 c-1 17 -3 17 -11 5 -5 -8
-10 -10 -11 -5 -1 6 -2 17 -3 25 -1 8 4 25 11 37 7 12 13 28 12 35 0 10 -2 10
-6 1 -8 -22 -24 -14 -20 10 2 12 2 16 0 9 -3 -7 -8 -10 -13 -7 -5 3 -6 13 -3
23 9 26 35 52 44 46 5 -3 9 0 9 5 0 6 9 11 19 11 11 0 23 5 26 10 8 13 25 13
25 -1z m-310 -34 c0 -8 3 -20 6 -29 3 -9 1 -16 -6 -16 -6 0 -18 -7 -26 -15 -9
-8 -12 -15 -7 -15 5 0 15 6 22 13 10 10 11 6 7 -18 -6 -32 12 -79 29 -76 6 1
16 18 23 38 10 31 10 39 -2 51 -9 10 -16 11 -20 3 -4 -6 -3 -11 1 -11 5 0 9
-10 10 -22 0 -13 -1 -18 -4 -11 -2 7 -10 11 -16 9 -7 -1 -9 -1 -4 1 4 3 7 9 7
14 0 6 -6 7 -12 3 -10 -6 -10 -5 -1 8 7 8 9 19 5 23 -4 5 -1 5 6 1 14 -8 17
10 2 19 -18 11 -11 23 11 18 12 -3 18 -11 15 -19 -3 -8 -1 -14 5 -14 6 0 7 -4
4 -10 -3 -5 -2 -10 4 -10 5 0 11 6 14 13 3 9 7 9 17 0 7 -6 20 -9 28 -5 15 5
15 4 2 -10 -13 -14 -17 -15 -26 -3 -12 16 -24 10 -24 -11 0 -6 11 -14 25 -16
14 -3 25 -1 25 4 0 5 5 6 10 3 7 -5 8 -11 1 -19 -6 -7 -6 -17 -1 -26 6 -10 4
-22 -4 -35 -12 -18 -12 -24 4 -44 13 -18 19 -21 25 -11 6 9 4 11 -6 5 -8 -5
-11 -5 -7 0 4 4 3 14 -3 22 -9 9 -8 13 0 13 6 0 10 3 10 8 -1 4 -1 14 0 22 1
13 2 13 11 0 5 -9 5 -19 -2 -28 -8 -9 -8 -16 1 -25 10 -9 12 -9 10 3 -3 17 19
75 26 68 2 -2 -3 -23 -11 -47 -8 -23 -11 -48 -8 -54 4 -7 4 -9 -1 -5 -12 11
-35 -11 -28 -28 3 -7 9 -12 14 -9 4 3 6 12 3 20 -4 10 0 13 15 10 12 -2 19 0
16 5 -6 10 65 7 84 -4 8 -5 16 -3 22 5 4 7 11 10 15 6 4 -4 -1 -16 -10 -26
-17 -18 -17 -20 4 -41 12 -12 19 -25 15 -28 -10 -11 -40 14 -40 34 0 13 -8 19
-28 21 -15 1 -27 -2 -27 -6 0 -5 -8 -8 -17 -8 -37 0 -43 -4 -42 -25 1 -17 2
-19 6 -5 2 9 11 17 19 17 8 0 17 0 22 0 4 0 7 -6 7 -12 0 -8 10 -12 22 -10 12
2 25 -3 29 -9 5 -8 2 -10 -8 -7 -8 4 -21 2 -29 -2 -10 -6 -18 -2 -26 13 -7 12
-12 18 -12 12 0 -17 28 -61 29 -45 0 12 4 11 15 -4 8 -10 12 -24 8 -29 -4 -6
0 -8 9 -4 9 3 23 -2 33 -13 9 -10 23 -16 31 -13 8 3 14 0 14 -7 0 -6 4 -9 9
-5 5 3 12 -4 16 -15 4 -11 11 -18 16 -15 5 3 7 -7 5 -24 -2 -21 0 -28 10 -24
19 7 18 -11 -1 -27 -12 -10 -15 -10 -15 0 0 8 -3 10 -7 7 -3 -4 -12 -2 -20 5
-7 6 -16 8 -20 4 -3 -3 -1 -6 5 -6 7 0 12 -7 12 -15 0 -9 -6 -15 -14 -13 -8 2
-15 -1 -14 -6 0 -5 -6 -12 -12 -16 -9 -5 -6 -10 9 -15 12 -3 19 -11 16 -16 -4
-5 -3 -15 2 -21 4 -7 8 -17 8 -23 1 -5 6 -9 13 -7 7 1 12 -2 12 -8 0 -5 7 -10
15 -10 9 0 19 -8 22 -17 6 -15 7 -15 14 3 6 16 8 16 8 2 1 -9 -3 -19 -8 -22
-5 -3 -7 -15 -4 -26 8 -30 -20 -25 -61 11 -20 17 -41 28 -48 24 -7 -4 -4 1 6
9 12 10 15 16 7 16 -8 0 -11 6 -7 16 3 8 2 13 -3 9 -10 -5 -41 48 -41 70 0 11
-12 17 -55 30 -39 11 -40 11 -37 -34 3 -42 33 -97 45 -84 4 3 10 -3 14 -13 3
-10 15 -25 25 -32 11 -8 15 -18 11 -25 -16 -25 -1 -63 21 -50 6 4 6 0 -2 -9
-10 -13 -10 -19 3 -32 9 -9 20 -16 25 -16 4 0 13 -13 20 -29 6 -16 22 -39 36
-52 13 -12 24 -29 24 -36 0 -8 5 -11 12 -7 7 4 8 3 4 -4 -4 -7 -2 -12 3 -12 6
0 11 5 11 11 0 5 5 7 11 3 8 -5 8 -9 -1 -14 -8 -5 -9 -13 -4 -21 4 -8 -9 0
-29 16 -71 57 -87 74 -81 89 8 20 -12 53 -36 61 -11 3 -20 13 -20 20 0 8 -6
12 -14 9 -16 -6 -52 10 -76 34 -13 14 -12 15 12 10 16 -3 25 -1 23 6 -2 6 -6
26 -9 44 -4 31 -28 61 -50 62 -4 0 -6 7 -2 15 7 20 -10 65 -32 82 -16 12 -15
13 2 6 16 -5 14 2 -13 39 -18 25 -31 52 -30 59 1 8 -3 26 -9 40 -8 20 -18 26
-46 27 -20 1 -47 9 -60 17 -14 9 -33 16 -43 15 -35 -4 -54 0 -48 10 4 6 11 7
17 4 7 -4 8 -2 4 5 -4 6 -12 9 -17 6 -5 -4 -9 3 -9 14 0 12 -5 21 -12 21 -6 0
-9 3 -6 6 10 9 53 -20 53 -36 0 -8 9 -16 20 -18 12 -2 16 0 9 5 -7 5 -8 17 -4
28 6 17 8 15 14 -12 9 -38 21 -42 36 -13 6 11 7 20 3 20 -4 0 2 7 13 16 10 8
13 13 7 9 -7 -3 -13 -2 -13 4 0 5 -3 18 -6 28 -6 16 -5 16 10 -2 15 -19 17
-19 29 -3 8 10 17 15 20 11 4 -3 7 -1 7 6 0 7 -6 11 -14 8 -10 -4 -13 1 -11
18 1 13 -1 24 -4 23 -25 -3 -41 4 -35 14 5 7 3 8 -5 3 -8 -4 -10 -17 -6 -32 4
-17 2 -23 -6 -18 -6 5 -9 19 -5 37 4 20 1 35 -10 45 -13 14 -14 13 -9 -13 6
-26 4 -25 -19 11 -14 22 -26 34 -26 26 0 -8 -3 -12 -6 -8 -3 3 -3 11 2 18 5 9
10 7 20 -6 12 -16 13 -16 11 3 0 11 -4 19 -8 16 -4 -2 -9 13 -11 33 -2 31 2
44 27 69 30 30 65 35 65 9z m8629 -62 c-10 -11 -9 -14 4 -13 1 1 20 -8 42 -19
29 -14 42 -16 48 -8 4 7 5 0 1 -15 -4 -18 -2 -28 5 -28 6 0 11 5 11 11 0 7 14
10 36 7 l37 -4 -23 18 c-27 22 -19 23 19 3 16 -8 32 -11 36 -7 3 4 5 0 3 -8
-2 -10 8 -16 36 -20 31 -4 36 -7 25 -16 -24 -19 -46 -23 -59 -11 -10 9 -11 9
-6 0 4 -7 3 -13 -1 -13 -20 0 -63 26 -66 40 -3 10 -7 8 -14 -9 -6 -16 -12 -20
-17 -13 -4 7 -15 12 -24 11 -15 0 -15 -1 -2 -7 14 -6 14 -9 -2 -24 -10 -10
-20 -18 -23 -18 -3 0 -9 0 -14 0 -5 0 -18 -16 -30 -36 l-21 -35 -29 20 c-16
12 -34 21 -41 21 -6 0 -16 14 -22 31 -6 16 -13 28 -15 25 -3 -3 -14 -1 -24 4
-9 6 -19 7 -22 2 -2 -4 -2 -2 -1 5 4 17 -13 26 -19 11 -4 -10 -8 -9 -16 2 -15
20 -14 33 2 23 20 -12 47 -14 47 -2 0 5 -4 8 -9 5 -4 -3 -17 1 -27 9 -13 11
-15 15 -4 13 8 -2 14 3 13 10 -2 6 6 12 18 12 12 0 17 4 13 11 -4 7 2 9 17 7
13 -1 24 -8 24 -15 0 -6 4 -15 9 -20 5 -4 6 -3 3 3 -4 7 0 17 8 24 11 9 15 9
15 1 0 -7 4 -10 9 -6 5 3 13 0 17 -7 4 -7 4 -10 -1 -6 -10 9 -35 -10 -35 -26
0 -6 5 -3 11 7 6 9 14 15 18 12 5 -2 14 2 20 9 8 10 9 16 1 21 -14 8 -5 22 14
22 12 0 13 -4 5 -14z m-8209 -43 c0 -5 6 -10 14 -10 8 0 16 -5 18 -11 3 -9 10
-9 27 0 12 7 30 10 39 8 13 -3 11 -7 -11 -17 -19 -9 -27 -20 -25 -33 2 -13 -3
-21 -15 -23 -24 -3 -31 -10 -23 -22 3 -6 15 -8 26 -5 13 4 30 -3 45 -17 13
-12 28 -19 34 -16 9 6 35 -16 73 -62 10 -12 24 -19 35 -16 15 4 22 -3 30 -30
10 -32 9 -36 -6 -36 -14 0 -17 7 -13 30 3 23 1 29 -10 25 -17 -7 -23 -75 -7
-75 7 0 5 -10 -5 -25 -9 -13 -16 -30 -16 -37 1 -7 8 -1 16 15 14 25 26 36 22
20 -3 -17 23 -64 34 -61 20 7 28 46 13 61 -8 8 -10 19 -5 27 5 8 6 19 3 25 -4
5 2 3 13 -6 10 -9 25 -14 32 -12 11 4 16 -8 13 -34 -1 -7 2 -13 7 -13 5 0 8
13 7 28 -2 22 2 28 16 27 10 -1 22 -5 26 -9 5 -4 4 -7 -2 -6 -25 5 -32 -2 -27
-25 2 -14 9 -25 14 -25 5 0 6 5 3 10 -3 6 -1 10 6 10 7 0 9 -10 7 -25 -3 -13
-1 -22 3 -19 5 3 9 0 9 -5 0 -6 7 -11 15 -11 8 0 15 -5 15 -11 0 -5 5 -7 10
-4 14 9 -7 35 -26 35 -8 0 -14 7 -14 15 0 8 5 15 11 15 5 0 7 -4 4 -10 -12
-20 17 -10 36 13 l19 22 -11 -30 c-5 -16 -7 -27 -3 -23 8 8 28 -10 37 -34 3
-10 11 -18 17 -18 6 0 8 5 4 12 -5 7 -3 8 5 3 9 -5 10 -10 2 -18 -7 -7 -5 -14
7 -24 16 -12 16 -13 -2 -6 -13 4 -17 3 -12 -5 7 -11 -6 -17 -28 -13 -5 1 -3
-6 5 -15 8 -10 9 -15 4 -12 -6 4 -17 3 -25 -2 -13 -8 -12 -12 5 -24 11 -9 26
-13 33 -11 13 5 9 -6 -11 -32 -11 -15 -51 2 -42 18 10 15 -32 10 -49 -7 -9 -8
-22 -12 -28 -8 -10 5 -10 4 -1 -6 10 -11 15 -11 30 1 10 7 15 10 11 5 -4 -5
-3 -16 2 -25 5 -10 5 -23 0 -31 -6 -10 -15 -7 -38 15 -17 15 -28 34 -25 40 2
7 -3 15 -12 19 -9 3 -13 10 -10 16 3 5 -1 10 -9 10 -20 0 -21 -16 -1 -24 16
-6 21 -36 5 -36 -5 0 -14 8 -19 18 -6 9 -11 13 -11 9 0 -14 37 -57 43 -51 3 3
11 3 17 -1 9 -6 9 -10 -1 -16 -11 -7 -11 -9 -1 -9 7 0 10 -6 7 -12 -4 -7 0 -4
9 6 14 17 16 17 22 3 5 -15 8 -15 32 1 23 14 25 14 14 1 -10 -13 -9 -19 3 -29
9 -7 14 -19 11 -27 -3 -7 -1 -13 5 -13 6 0 9 -7 6 -15 -4 -8 -2 -17 4 -21 18
-10 22 4 11 35 -10 30 -10 31 16 31 23 1 24 2 10 11 -16 9 -16 11 3 30 17 17
18 23 7 37 -10 12 -6 12 20 -3 17 -11 32 -23 32 -27 0 -4 8 -4 18 -1 15 6 15
5 4 -10 -8 -8 -19 -14 -26 -11 -7 3 -12 -5 -13 -18 -1 -13 1 -18 5 -13 4 6 14
10 22 10 8 -1 25 2 38 7 13 4 21 4 18 0 -3 -5 4 -16 15 -25 11 -10 17 -23 13
-29 -5 -8 -1 -9 11 -4 15 5 16 4 6 -8 -14 -16 -5 -60 10 -51 5 3 6 -1 3 -9
-11 -28 -29 -17 -26 15 1 3 -6 6 -14 6 -8 0 -14 -4 -14 -9 0 -4 6 -8 13 -8 9
0 8 -3 -2 -9 -7 -5 -10 -14 -7 -20 4 -6 3 -11 -3 -11 -6 0 -15 9 -21 20 -6 11
-15 18 -20 15 -5 -3 -11 -1 -15 5 -4 6 -11 8 -16 5 -5 -4 -9 -1 -9 4 0 15 13
14 29 -1 11 -11 12 -9 7 12 -4 14 -8 30 -8 37 -1 11 -27 27 -34 21 -1 -2 -5
-15 -8 -30 -5 -29 -24 -68 -32 -68 -3 0 -3 4 0 9 6 10 -28 44 -36 36 -3 -3
-11 1 -18 10 -16 19 -37 19 -37 0 0 -8 5 -14 11 -13 6 0 23 -2 39 -6 31 -9 37
-36 8 -36 -11 0 -23 -5 -26 -10 -4 -6 -11 -7 -17 -4 -6 4 -5 -3 2 -16 9 -18
14 -20 21 -9 6 10 14 7 33 -16 28 -32 32 -50 16 -60 -6 -4 -7 -11 -4 -17 4 -6
-1 -17 -11 -25 -18 -12 -18 -13 2 -13 12 0 25 -5 28 -10 4 -6 1 -9 -7 -8 -7 2
-12 -5 -12 -14 1 -10 -4 -14 -12 -11 -8 3 -14 12 -14 20 0 8 -4 11 -10 8 -5
-3 -10 1 -10 10 0 9 -4 14 -9 11 -5 -4 -8 5 -6 19 2 26 -13 33 -31 15 -8 -8
-15 -5 -25 7 -7 10 -10 15 -5 11 10 -8 46 22 46 39 0 7 -5 13 -11 13 -5 0 -7
5 -4 10 3 6 -3 10 -14 10 -28 0 -27 18 2 30 18 7 19 9 4 9 -11 1 -26 -7 -35
-17 -10 -10 -13 -12 -8 -5 5 9 4 13 -5 13 -9 0 -10 3 -4 8 24 17 14 30 -15 22
-19 -5 -28 -5 -25 1 4 5 -1 9 -11 9 -12 0 -15 6 -12 25 4 21 3 23 -9 14 -11
-10 -12 -8 -7 5 5 12 2 15 -12 10 -18 -5 -18 -5 -1 6 24 16 21 29 -6 26 -23
-3 -23 -2 -9 26 13 27 15 28 28 11 13 -17 14 -17 8 0 -4 10 -15 22 -26 28 -16
9 -19 8 -12 -3 6 -10 3 -9 -10 2 -12 9 -14 16 -7 18 8 3 6 9 -6 19 -12 10 -14
16 -6 19 7 3 9 12 6 20 -4 10 -9 12 -18 4 -14 -11 -45 -3 -45 11 0 6 -8 6 -19
0 -15 -9 -18 -7 -17 12 1 14 -4 21 -13 19 -24 -5 -42 18 -30 39 9 18 2 24 -24
20 -4 0 -6 2 -5 6 3 8 -5 13 -22 13 -7 0 -7 -6 0 -20 6 -11 7 -20 1 -20 -12 0
-23 47 -16 70 5 15 14 17 53 14 73 -6 98 -10 111 -19 10 -5 9 -2 0 13 -7 12
-17 18 -21 16 -9 -6 -10 8 -2 30 3 9 9 14 13 12 4 -3 8 7 9 22 1 15 -2 22 -6
16 -5 -9 -11 -8 -20 2 -7 8 -10 14 -6 14 4 0 -2 10 -14 23 -12 13 -19 27 -15
30 10 11 -16 8 -38 -3 -20 -11 -26 -1 -9 16 12 12 3 44 -12 44 -5 0 -6 6 -2
13 4 6 3 9 -1 4 -5 -4 -10 -17 -12 -30 -2 -12 -8 -26 -13 -31 -11 -11 -1 -38
11 -30 5 3 9 0 9 -6 0 -6 5 -8 12 -4 7 5 9 2 5 -8 -4 -11 2 -17 18 -21 14 -2
26 0 29 5 2 5 3 3 2 -4 -2 -9 -21 -13 -60 -11 -71 2 -116 19 -116 45 0 10 -8
22 -17 26 -10 4 -20 14 -22 22 -23 92 -19 103 27 75 l27 -16 -22 20 c-27 23
-29 31 -7 31 11 0 14 6 9 21 -8 26 13 79 31 79 8 0 14 -4 14 -10z m11040 -731
c0 -17 -28 -9 -33 9 -4 13 -5 11 -6 -5 -1 -17 5 -23 20 -23 16 0 20 -5 16 -19
-3 -11 1 -22 8 -25 10 -4 12 4 8 30 l-6 35 34 -19 c19 -10 40 -17 47 -14 7 2
11 -2 10 -9 -2 -8 7 -15 19 -17 12 -2 24 -10 27 -19 8 -19 4 -24 -22 -26 -11
0 -19 -4 -16 -8 2 -4 -2 -10 -8 -13 -7 -2 -3 -4 9 -2 12 1 31 10 41 19 11 10
23 17 28 16 19 -3 35 1 30 9 -3 5 1 9 8 9 11 0 11 -5 0 -26 -10 -18 -10 -27
-3 -30 7 -2 6 -6 -2 -12 -10 -6 -11 -9 -1 -9 6 0 12 -4 12 -10 0 -5 -9 -10
-20 -10 -11 0 -20 4 -20 8 0 11 -37 9 -47 -3 -5 -4 -3 -5 4 -1 6 3 14 2 18 -4
3 -5 14 -10 25 -10 10 0 20 -7 24 -15 3 -8 1 -15 -4 -15 -6 0 -10 5 -10 12 0
9 -3 9 -12 0 -14 -14 -72 -16 -63 -2 3 5 13 7 23 4 9 -3 7 1 -6 8 -12 8 -19
18 -15 22 4 4 1 6 -7 4 -8 -1 -14 2 -13 9 2 7 -4 10 -12 7 -8 -4 -13 -9 -10
-13 2 -4 -9 -7 -25 -7 -16 0 -27 3 -24 8 3 4 -5 8 -18 8 -13 0 -18 -3 -12 -8
13 -8 15 -44 2 -36 -5 3 -5 10 -2 16 4 7 2 8 -4 4 -6 -4 -8 -14 -5 -23 5 -12
3 -14 -7 -8 -9 5 -11 4 -6 -3 4 -8 0 -12 -12 -12 -34 0 -82 22 -93 42 -8 15
-13 17 -25 7 -11 -9 -14 -8 -14 7 0 11 4 25 9 32 6 11 10 10 15 -4 5 -12 10
-14 18 -6 6 6 16 8 23 6 7 -3 16 0 21 7 5 8 3 10 -5 4 -9 -5 -12 0 -9 16 2 15
-2 23 -9 22 -7 -2 -13 4 -13 12 0 17 25 20 35 5 3 -5 14 -10 23 -9 14 0 13 2
-3 9 -19 8 -18 11 4 14 20 3 21 15 2 21 l-21 6 20 26 c11 14 17 30 14 35 -4 6
5 2 20 -7 14 -10 26 -21 26 -26z m-290 -454 c0 -8 3 -14 8 -13 4 1 17 -3 29
-10 16 -9 20 -19 17 -36 -2 -14 1 -28 7 -32 7 -4 9 -3 6 2 -8 14 9 38 22 30 6
-4 11 -12 11 -17 0 -6 -4 -7 -10 -4 -5 3 -10 -3 -10 -14 0 -15 -6 -21 -24 -21
-13 0 -35 -9 -50 -21 -14 -11 -30 -18 -34 -15 -5 3 -9 -1 -9 -9 0 -8 5 -15 11
-15 6 0 4 -5 -4 -10 -10 -6 -11 -10 -2 -10 6 0 12 -7 12 -15 0 -24 20 -17 21
8 2 21 2 21 6 -2 3 -16 7 -20 13 -12 5 10 9 9 13 -4 4 -9 3 -13 -3 -10 -6 3
-10 1 -10 -4 0 -6 -5 -11 -11 -11 -5 0 -7 5 -3 12 4 7 3 8 -4 4 -18 -11 -14
-20 12 -32 21 -10 24 -9 19 5 -4 14 -3 14 6 1 8 -12 6 -19 -11 -33 -12 -10
-22 -28 -23 -40 -1 -17 -8 -22 -28 -22 -15 -1 -26 4 -25 10 4 18 -25 53 -39
48 -7 -3 -13 2 -13 11 0 9 -5 16 -11 16 -5 0 -7 5 -4 11 4 6 -2 13 -13 16 -11
2 -22 16 -25 29 -2 13 0 21 4 18 5 -3 9 -1 9 5 0 5 -4 13 -10 16 -19 12 -11
26 9 15 17 -8 19 -7 16 9 -6 30 23 34 41 6 9 -14 20 -25 26 -25 5 0 -1 10 -12
22 -23 25 -23 49 0 55 13 4 13 3 0 -6 -9 -7 -11 -11 -3 -11 7 0 17 8 22 18 6
10 11 12 11 4 0 -18 20 -4 20 14 0 8 -4 13 -9 10 -5 -4 -8 2 -6 11 2 10 4 20
4 23 1 3 6 -2 11 -10 8 -12 9 -9 8 11 -2 19 -6 25 -17 21 -9 -3 -12 -1 -7 6
10 17 36 15 36 -3z m-2060 -300 c0 -8 4 -15 8 -15 14 0 52 -40 52 -54 0 -7 -7
-13 -15 -13 -8 0 -11 5 -8 10 4 7 -1 8 -13 3 -15 -6 -17 -5 -6 5 6 7 12 17 12
21 0 5 -6 8 -12 7 -27 -3 -37 1 -32 14 2 7 -4 13 -16 14 -23 2 -25 -7 -7 -27
10 -12 9 -12 -5 -1 -11 8 -18 9 -18 3 0 -6 4 -13 9 -16 5 -4 8 -22 7 -41 -2
-20 3 -43 11 -52 8 -10 12 -12 8 -5 -3 6 -2 12 4 12 6 0 8 8 5 18 -5 15 -4 15
8 2 17 -21 62 -24 54 -4 -8 22 0 17 38 -23 34 -37 36 -37 68 -24 18 7 57 14
86 14 29 0 48 3 42 7 -9 6 -9 9 0 15 7 4 15 3 19 -2 7 -12 42 -13 35 -1 -6 9
-5 9 51 11 22 1 42 4 45 7 12 12 51 30 64 30 30 0 1 -114 -52 -210 -20 -36
-50 -92 -67 -125 -24 -46 -35 -59 -50 -57 -16 2 -17 1 -6 -7 12 -7 6 -18 -26
-55 -23 -26 -58 -60 -78 -76 -38 -30 -60 -41 -37 -18 7 7 12 21 11 32 0 12 -3
15 -6 9 -2 -7 -14 -13 -26 -13 -15 0 -18 3 -10 11 6 6 9 18 6 25 -4 10 0 12
11 8 11 -4 16 -1 16 11 0 12 -5 15 -17 11 -10 -4 -14 -4 -10 0 9 9 -32 54 -49
54 -7 0 -22 -9 -33 -21 -18 -20 -20 -20 -30 -2 -6 10 -11 14 -11 9 0 -5 -6 -3
-14 3 -12 10 -13 8 -9 -8 6 -23 32 -34 59 -25 18 5 18 5 1 -9 -11 -9 -26 -13
-35 -10 -10 4 -14 3 -10 -2 4 -4 2 -17 -4 -28 -10 -20 -11 -20 -28 3 -10 14
-28 23 -44 23 -15 0 -25 4 -24 9 2 5 7 9 12 8 11 -2 45 63 38 74 -3 5 7 7 22
4 18 -4 24 -2 18 4 -6 6 -8 16 -6 23 3 7 -4 15 -15 18 -29 7 -44 49 -22 62 9
6 16 16 17 23 2 27 5 29 30 26 23 -2 25 0 19 24 -6 25 -5 26 8 8 13 -17 14
-17 20 -2 5 11 3 15 -5 10 -7 -5 -9 -2 -5 8 6 16 -30 58 -49 58 -5 0 -3 -4 4
-9 10 -6 7 -10 -12 -13 -14 -3 -26 -1 -26 4 0 6 -7 8 -15 4 -18 -6 -37 26 -29
48 3 9 9 14 14 11 4 -2 5 8 2 23 -4 19 -7 22 -10 10 -2 -10 -10 -18 -18 -18
-8 0 -14 -6 -15 -12 0 -10 -2 -10 -6 0 -3 7 3 22 13 33 10 11 12 19 6 19 -7 0
-12 5 -12 11 0 5 4 8 9 4 5 -3 12 -1 15 4 3 5 -2 12 -12 16 -15 6 -15 8 6 25
14 11 20 24 16 31 -4 7 -3 10 2 7 5 -3 18 -2 29 3 30 11 35 11 35 -6z m-335
-512 c2 -10 4 -21 4 -26 1 -4 12 -12 26 -17 14 -5 25 -16 25 -25 0 -8 5 -15
11 -15 7 0 8 -11 4 -30 -6 -28 -5 -29 29 -28 19 1 33 5 30 10 -3 4 2 8 11 8 8
0 18 7 21 15 4 8 10 15 16 15 5 0 7 -3 4 -8 -2 -4 2 -18 11 -32 8 -14 12 -17
9 -8 -3 10 -1 20 5 23 5 4 9 3 8 -2 -4 -22 3 -33 20 -33 14 0 17 -6 14 -24 -3
-13 0 -27 6 -30 6 -4 11 -13 11 -19 0 -7 -7 -4 -14 6 -13 16 -15 16 -37 -3
-16 -14 -18 -18 -6 -14 9 3 17 1 17 -5 0 -6 -4 -11 -10 -11 -5 0 -10 -10 -10
-23 0 -12 -7 -32 -15 -44 -8 -12 -12 -29 -9 -37 4 -12 2 -15 -9 -10 -21 8 -30
34 -12 34 9 0 12 6 8 17 -5 12 -3 14 8 9 8 -4 2 3 -12 16 -14 14 -25 34 -24
46 1 12 -1 20 -3 17 -3 -3 -10 3 -17 11 -9 14 -16 14 -33 5 -17 -9 -27 -9 -40
-1 -15 10 -15 11 0 6 13 -4 16 1 16 24 -1 16 -8 32 -16 35 -10 3 -12 0 -8 -10
9 -26 -8 -16 -21 11 -11 23 -10 24 4 12 14 -11 16 -11 11 3 -4 9 -1 22 5 28 9
9 8 14 -3 21 -8 5 -11 10 -6 10 5 0 -3 11 -18 25 -16 14 -26 35 -26 51 0 29 9
28 15 -3z m-6370 -1033 c-7 -11 58 -82 69 -75 3 3 4 2 1 -1 -7 -10 38 -42 52
-37 7 3 19 1 26 -5 6 -5 27 -13 45 -17 18 -3 37 -15 42 -25 7 -12 16 -17 27
-13 9 4 14 2 10 -3 -6 -11 8 -39 20 -39 4 -1 22 -8 38 -17 23 -13 25 -17 11
-18 -15 0 -16 -3 -6 -15 7 -8 10 -24 7 -35 -5 -19 14 -45 26 -34 3 3 4 -5 1
-18 -2 -12 -2 -17 2 -10 3 6 13 12 22 12 12 0 13 -3 4 -12 -7 -7 -12 -16 -12
-22 0 -5 6 -1 14 9 14 20 11 49 -5 39 -5 -3 -9 0 -9 5 0 20 15 11 42 -23 16
-21 24 -37 18 -41 -6 -3 -13 1 -16 9 -8 22 -26 9 -19 -14 9 -28 -12 -33 -29
-8 -9 12 -16 17 -16 10 0 -6 9 -21 20 -32 11 -11 20 -15 20 -8 0 6 3 8 7 4 4
-4 -2 -15 -15 -24 -22 -17 -22 -17 16 -19 27 -2 33 0 21 7 -9 5 -15 19 -13 32
1 13 3 26 3 31 1 4 4 6 9 5 14 -4 52 23 46 34 -4 5 0 14 7 19 10 6 7 9 -11 10
-14 1 -29 1 -33 0 -5 -1 -6 3 -3 8 4 5 -8 17 -25 25 -37 18 -51 21 -29 5 13
-9 13 -10 0 -6 -8 2 -14 12 -12 22 2 9 -1 14 -7 11 -5 -4 -12 -2 -15 3 -4 5 7
9 24 9 17 -1 36 4 42 10 8 8 15 9 25 1 9 -8 13 -8 13 -1 0 19 -18 23 -41 10
-17 -10 -23 -10 -26 0 -3 6 -9 10 -14 6 -5 -3 -9 -1 -9 5 0 6 -8 7 -17 4 -16
-6 -16 -5 -4 10 7 9 18 14 25 10 6 -3 6 0 -1 8 -17 17 -16 29 2 29 8 0 20 -10
26 -22 7 -13 14 -18 16 -11 3 7 -1 21 -7 32 -9 17 -8 20 5 15 8 -4 15 -15 15
-26 0 -12 11 -23 31 -30 19 -7 28 -15 25 -24 -3 -8 0 -14 6 -14 7 0 5 -7 -5
-17 -13 -16 -14 -19 0 -32 13 -12 14 -11 9 10 -6 19 -5 21 3 7 7 -10 19 -14
33 -10 19 5 20 4 7 -10 -7 -9 -18 -13 -23 -10 -5 3 -6 0 -2 -6 4 -6 13 -9 21
-5 10 3 15 -1 15 -12 0 -9 -4 -13 -10 -10 -5 3 -10 1 -10 -5 0 -6 -4 -8 -10
-5 -5 3 -10 1 -10 -4 0 -6 4 -11 8 -11 5 0 14 -11 20 -25 9 -19 9 -25 0 -25
-6 0 -8 -3 -5 -6 4 -4 -2 -15 -13 -24 -20 -18 -20 -18 1 -23 11 -3 18 -10 14
-16 -3 -6 -2 -19 4 -28 8 -15 10 -14 7 7 -1 14 -5 31 -9 37 -5 8 4 13 25 15
25 2 33 7 31 22 -1 12 2 15 9 8 6 -6 7 -16 2 -24 -5 -7 -10 -19 -11 -25 -2 -7
-5 -21 -7 -30 -3 -10 -5 -25 -5 -33 -1 -13 -2 -13 -11 0 -8 11 -9 8 -4 -12 5
-21 2 -28 -9 -28 -13 0 -31 -33 -28 -52 1 -5 -4 -8 -9 -8 -6 0 -10 -7 -10 -15
0 -20 17 -19 30 3 9 14 10 13 4 -7 -4 -14 -2 -21 4 -17 14 8 10 -67 -4 -81
-17 -17 -24 -16 -24 3 0 8 5 12 10 9 6 -3 10 -2 10 4 0 5 -4 13 -10 16 -5 3
-10 11 -10 18 0 6 7 2 15 -9 15 -18 15 -18 13 6 -2 15 -10 26 -21 28 -15 3
-18 -2 -15 -27 2 -16 -1 -29 -7 -28 -5 1 -9 9 -7 17 2 13 2 13 -7 0 -5 -8 -7
-18 -4 -22 2 -5 -3 -20 -12 -34 -9 -13 -13 -29 -10 -34 3 -6 4 -10 0 -10 -9 0
-23 44 -18 54 3 4 9 2 14 -5 7 -11 9 -11 9 2 0 9 -7 20 -16 23 -8 3 -12 10 -9
16 3 5 1 10 -4 10 -17 0 -13 37 5 44 8 3 13 10 9 15 -8 14 -32 3 -38 -18 -2
-10 0 -26 5 -35 9 -16 1 -21 -29 -17 -7 1 -13 -3 -13 -9 0 -5 12 -10 28 -11
15 0 21 -3 15 -6 -7 -2 -13 -9 -13 -14 0 -6 6 -7 13 -3 9 5 9 3 -1 -7 -11 -12
-14 -12 -22 1 -13 21 -12 3 1 -22 6 -11 7 -18 1 -14 -5 3 -17 -3 -27 -14 -14
-16 -20 -17 -27 -8 -6 10 -8 10 -8 0 0 -10 -4 -9 -16 3 -9 9 -19 14 -22 11
-10 -10 20 -35 50 -41 22 -5 27 -9 17 -16 -8 -5 -15 -4 -17 1 -2 6 -8 10 -13
10 -5 0 -4 -9 3 -19 9 -15 9 -23 -1 -35 -7 -8 -10 -20 -6 -26 3 -5 -1 -13 -9
-16 -9 -3 -16 -10 -16 -16 0 -5 5 -6 12 -2 6 4 8 3 5 -4 -4 -5 -4 -17 -1 -26
5 -14 9 -14 22 -4 10 8 13 9 9 1 -4 -6 -4 -13 0 -16 5 -2 2 -2 -4 -1 -7 2 -13
-5 -13 -15 0 -11 -3 -27 -7 -37 -3 -10 -2 -15 3 -12 14 9 13 -74 -1 -95 -7
-10 -10 -34 -8 -59 5 -35 3 -40 -11 -35 -14 5 -15 3 -6 -13 13 -25 14 -51 0
-30 -8 13 -11 13 -19 1 -7 -11 -10 -10 -14 5 -3 10 -5 -3 -4 -29 1 -32 -4 -52
-13 -59 -12 -8 -12 -9 3 -4 23 7 33 -17 17 -41 -10 -16 -11 -16 -7 4 4 17 1
21 -17 17 -25 -4 -32 21 -9 30 8 3 12 10 8 16 -10 16 -14 80 -5 85 5 3 6 14 3
25 -4 14 -1 20 7 18 7 -2 13 8 14 25 1 16 8 32 16 37 11 7 12 10 2 10 -7 0
-10 5 -7 10 4 6 11 7 17 4 6 -4 6 1 -1 14 -8 15 -8 21 1 24 8 3 9 11 3 24 -4
10 -9 26 -9 34 -1 8 -5 21 -9 28 -5 7 -3 12 4 12 7 0 6 8 -5 24 -10 17 -12 26
-4 28 6 2 12 14 13 27 1 12 8 27 16 32 12 8 12 10 -1 19 -12 8 -12 10 -1 10
11 0 11 3 1 15 -10 12 -10 15 1 15 9 0 10 3 2 11 -18 18 -34 1 -28 -29 3 -15
2 -20 -1 -12 -4 8 -12 18 -18 22 -7 5 -4 12 9 22 17 14 18 17 5 26 -8 5 -11
10 -6 10 5 0 4 6 -2 13 -13 16 1 51 29 70 19 14 20 18 9 32 -11 14 -11 20 -1
37 11 17 10 22 0 29 -16 10 -21 67 -7 75 7 4 6 9 -1 14 -9 5 -8 14 2 33 8 15
18 23 23 19 4 -4 2 2 -6 12 -8 11 -10 17 -3 13 9 -6 10 2 5 30 -4 21 -7 62 -7
91 0 28 -3 52 -7 52 -5 0 -8 8 -8 19 0 26 -76 90 -154 129 -37 19 -63 38 -60
44 4 6 -1 8 -15 3 -16 -5 -30 4 -66 40 -25 26 -45 51 -45 55 0 5 10 11 23 13
12 2 23 5 25 6 2 0 0 -4 -3 -9z m5030 -27 c-5 -10 -7 -26 -6 -37 2 -11 -2 -16
-8 -12 -21 14 -11 -13 11 -29 19 -13 21 -18 11 -34 -10 -16 -9 -21 9 -33 17
-11 19 -16 8 -23 -9 -5 -11 -4 -6 3 5 8 -2 12 -18 12 -16 0 -26 -6 -26 -15 0
-14 13 -20 34 -16 5 1 3 -6 -5 -15 -9 -12 -9 -15 -1 -10 7 4 12 2 12 -4 0 -21
45 -75 63 -75 9 0 17 -3 17 -7 0 -5 8 -16 18 -26 9 -10 24 -29 32 -41 8 -13
23 -32 32 -43 10 -11 15 -24 13 -28 -3 -5 0 -10 6 -12 8 -3 6 -10 -6 -21 -13
-13 -14 -21 -6 -31 6 -7 9 -15 6 -17 -2 -3 5 -5 15 -6 11 -1 20 4 20 10 1 7 7
1 15 -13 8 -14 14 -22 15 -17 0 4 10 1 23 -8 13 -8 27 -12 30 -8 4 3 7 -5 8
-18 0 -13 3 -19 5 -12 4 9 13 9 30 2 34 -12 42 -11 24 4 -8 7 -21 26 -28 42
-11 24 -11 27 -1 18 17 -17 29 -16 29 2 0 8 3 15 8 16 4 0 15 2 25 4 9 2 17
-2 17 -8 0 -7 4 -6 9 3 13 20 5 29 -22 25 l-22 -4 23 19 c15 12 18 20 10 23
-10 3 -8 10 6 26 17 18 15 25 -5 23 -3 -1 -6 5 -6 13 0 10 5 11 19 4 17 -9 21
-4 20 21 0 3 6 11 14 18 13 12 14 10 8 -14 -6 -21 -4 -25 7 -19 8 5 6 -1 -4
-12 -10 -11 -17 -24 -16 -29 3 -19 -1 -35 -9 -30 -4 2 -8 -4 -8 -14 0 -10 6
-16 13 -13 7 3 10 9 7 14 -3 5 0 9 6 9 6 0 10 -10 8 -22 -2 -13 -9 -23 -17
-23 -8 0 -16 -6 -18 -12 -3 -7 0 -13 7 -13 6 0 8 -5 4 -12 -4 -7 -3 -8 4 -4
16 9 113 -24 119 -41 9 -24 -6 -27 -29 -7 l-23 19 19 -22 c11 -13 26 -23 34
-23 13 0 13 -2 0 -17 -9 -10 -13 -24 -11 -31 3 -7 -1 -20 -9 -29 -8 -10 -8
-14 -1 -10 8 5 11 0 10 -14 -1 -11 -9 -25 -18 -30 -14 -7 -16 -15 -9 -40 6
-21 6 -38 -1 -48 -9 -13 -10 -12 -6 7 3 12 1 20 -3 17 -5 -3 -11 1 -14 7 -3 7
-3 2 0 -12 5 -25 5 -25 -8 -3 -9 15 -18 19 -26 14 -11 -6 -10 -10 3 -15 14 -5
15 -9 6 -20 -10 -11 -8 -17 6 -25 11 -6 13 -11 5 -11 -7 0 -10 -5 -7 -10 4 -6
11 -8 16 -5 5 4 9 2 9 -3 0 -14 50 -22 50 -8 0 6 7 3 14 -6 15 -20 31 -25 20
-6 -4 7 -3 8 5 4 15 -9 3 -29 -14 -22 -7 2 -18 -1 -24 -7 -10 -9 -12 -9 -9 3
4 19 -42 22 -49 4 -3 -8 -16 -14 -28 -14 -13 0 -27 -5 -30 -10 -4 -6 -11 -8
-16 -5 -5 4 -9 -2 -9 -12 0 -14 -6 -11 -28 13 -21 25 -34 31 -59 30 -20 -2
-34 3 -37 11 -3 8 -1 11 4 8 6 -3 10 -1 10 4 0 15 -13 14 -29 -1 -11 -11 -13
-10 -8 5 4 9 2 17 -3 17 -6 0 -10 6 -10 14 0 9 -7 12 -20 9 -11 -3 -17 -9 -14
-14 3 -5 9 -7 14 -4 4 3 6 -4 3 -15 -3 -11 1 -28 8 -38 11 -14 9 -13 -9 2 -12
11 -20 21 -17 24 8 8 -34 81 -53 91 -10 5 -27 25 -37 45 -10 19 -21 33 -24 31
-4 -1 -7 25 -9 59 -2 33 -7 65 -13 70 -5 6 -9 36 -9 68 0 50 -5 66 -37 113
-20 31 -33 58 -30 62 4 3 7 1 7 -5 0 -7 10 -12 23 -12 14 0 18 -3 10 -8 -19
-12 -1 -30 22 -21 18 7 18 8 2 8 -10 1 -16 5 -12 10 3 5 1 12 -5 16 -6 4 -7
12 0 24 6 12 5 22 -2 29 -19 19 -38 14 -47 -10 -8 -21 -10 -19 -31 22 -12 25
-26 47 -30 50 -28 20 -37 119 -15 172 4 9 4 21 1 26 -3 6 1 12 9 16 8 3 15 14
15 24 0 18 20 45 28 37 2 -2 1 -12 -3 -22z m7034 -240 c-4 -25 3 -35 20 -30
13 3 18 0 15 -8 -3 -7 0 -16 7 -21 7 -4 10 -3 6 3 -4 6 0 16 7 22 9 8 17 8 20
2 3 -5 1 -11 -6 -13 -7 -3 -2 -7 11 -11 15 -4 21 -2 18 7 -3 6 4 13 14 13 11
1 19 -5 19 -13 0 -8 -4 -13 -8 -10 -10 6 -45 -33 -50 -54 -3 -11 0 -11 12 0
11 8 16 9 16 1 0 -6 7 -11 15 -11 18 0 18 -1 5 -34 -8 -21 -7 -24 8 -19 9 3
23 11 31 17 11 9 13 7 7 -12 -6 -18 -4 -21 10 -15 13 5 15 3 10 -8 -4 -8 -1
-6 7 3 13 17 15 16 25 -5 6 -12 11 -16 11 -9 1 6 5 12 11 12 5 0 8 -10 6 -22
-4 -25 10 -48 28 -48 6 0 3 5 -7 11 -15 9 -15 12 -3 25 12 11 20 12 40 3 14
-7 23 -16 19 -22 -3 -6 -1 -7 5 -3 7 4 12 1 12 -8 0 -9 -3 -15 -7 -15 -24 4
-43 -2 -37 -12 3 -6 1 -14 -5 -18 -8 -5 -7 -12 2 -25 13 -17 14 -17 30 -1 16
15 17 15 17 0 0 -9 5 -13 10 -10 13 8 13 -6 0 -25 -9 -13 -11 -13 -21 0 -8 11
-12 12 -16 2 -2 -6 -8 -10 -13 -7 -4 3 -6 -4 -3 -14 4 -17 8 -18 27 -8 11 7
29 19 39 26 17 14 18 13 12 -20 -4 -24 -3 -30 5 -19 9 13 10 13 11 0 1 -8 1
-19 0 -24 -1 -5 4 -4 12 2 11 9 13 6 9 -20 -5 -30 -9 -39 -39 -73 -7 -7 -13
-19 -13 -25 0 -7 -7 -10 -15 -6 -8 3 -15 1 -15 -4 0 -6 6 -10 13 -10 8 0 22
-9 31 -19 16 -18 16 -21 1 -45 -9 -13 -23 -22 -30 -20 -14 6 -15 -19 -2 -32
14 -14 6 -25 -15 -22 -13 2 -21 7 -20 12 8 20 -22 24 -32 4 -6 -11 -15 -20
-19 -19 -12 3 -37 -32 -31 -41 3 -5 1 -8 -5 -8 -5 0 -13 5 -16 11 -5 7 -13 5
-25 -6 -10 -9 -24 -14 -29 -10 -13 7 -15 45 -3 45 4 0 13 14 19 30 6 17 10 30
9 30 -1 0 -20 -9 -43 -20 -34 -16 -40 -23 -36 -43 3 -14 0 -28 -6 -31 -6 -4
-9 -2 -6 6 3 8 -1 22 -10 33 -12 16 -14 17 -9 3 3 -10 1 -18 -5 -18 -6 0 -11
-7 -11 -15 0 -8 -10 -20 -22 -26 -13 -6 -20 -8 -16 -4 4 5 3 14 -3 22 -9 9 -8
13 0 13 6 0 11 -4 11 -10 0 -5 4 -10 8 -10 5 0 9 7 9 15 0 8 -6 15 -13 15 -7
0 -16 9 -19 20 -7 22 -35 26 -53 8 -18 -18 -15 -28 9 -28 11 0 18 4 14 9 -3 5
-2 12 3 15 4 2 7 -14 6 -37 -1 -23 -7 -43 -14 -45 -7 -3 -10 0 -7 5 8 12 -20
53 -36 53 -7 0 -18 9 -25 21 -11 17 -11 20 0 13 23 -14 36 -13 54 7 16 18 16
19 -2 21 -10 0 -24 1 -30 1 -6 0 -11 5 -11 11 1 36 -4 45 -20 39 -13 -5 -15
-2 -10 11 4 9 3 15 -2 12 -12 -8 -19 60 -8 79 5 10 16 14 27 10 29 -9 42 23
21 54 -15 24 -15 25 2 18 9 -3 17 -2 17 2 0 11 19 9 38 -3 18 -11 27 1 13 18
-9 11 -7 14 14 14 14 0 28 -6 32 -12 4 -6 10 -1 13 14 4 16 13 25 25 25 10 0
20 6 22 13 3 6 0 12 -7 12 -6 0 -8 -5 -4 -12 4 -7 3 -8 -5 -4 -14 9 -5 26 13
26 19 0 27 60 9 67 -7 3 -13 9 -13 15 0 5 5 6 12 2 6 -4 8 -3 5 4 -4 5 -16 8
-27 5 -15 -4 -19 -2 -14 10 3 9 12 13 21 10 11 -4 14 0 11 18 -2 13 -9 23 -16
21 -7 -1 -23 4 -35 13 -21 15 -21 15 -1 15 11 0 23 3 27 6 7 8 -17 34 -32 34
-15 0 -14 13 2 29 10 10 9 12 -3 11 -29 -4 -40 0 -40 14 0 8 -5 18 -12 22 -6
4 -8 3 -4 -4 4 -6 -1 -10 -12 -9 -17 1 -17 3 -5 29 13 25 35 39 32 21z m245
-35 c-5 -7 -2 -9 8 -5 11 4 18 -2 23 -20 3 -14 9 -23 12 -19 4 3 15 -2 26 -11
15 -13 18 -14 13 -3 -4 8 1 5 12 -7 17 -20 21 -20 26 -7 5 13 9 14 21 4 9 -7
13 -15 11 -17 -8 -8 37 -52 47 -46 6 3 7 1 3 -5 -4 -7 3 -17 18 -24 31 -14 34
-27 5 -25 -12 1 -25 12 -30 25 -5 14 -14 20 -21 16 -7 -4 -8 -3 -4 4 4 7 2 12
-3 12 -14 0 -14 -17 0 -26 6 -3 9 -15 6 -25 -3 -11 -2 -19 3 -19 4 0 10 -7 14
-15 4 -10 -1 -15 -15 -15 -12 0 -17 4 -14 11 4 6 1 10 -6 9 -21 -3 -59 11 -59
22 0 5 -5 6 -12 2 -8 -5 -9 -2 -5 9 5 12 1 17 -13 17 -11 0 -20 5 -20 11 0 6
-9 8 -20 4 -18 -6 -20 -2 -20 32 0 22 5 44 11 50 8 8 5 17 -10 32 -19 19 -21
41 -5 41 3 0 2 -5 -2 -12z m-12099 -1619 c4 -5 14 -9 25 -9 10 0 21 -7 24 -16
5 -13 1 -15 -18 -10 -15 4 -28 1 -32 -6 -5 -8 -2 -9 9 -5 9 3 19 2 22 -4 4 -5
-1 -12 -9 -15 -9 -3 -13 -10 -10 -15 3 -5 -6 -8 -20 -7 -20 2 -26 8 -27 28 0
23 -1 23 -9 5 -6 -15 -2 -26 18 -44 17 -17 21 -26 13 -29 -8 -3 -18 2 -23 9
-7 10 -7 7 -3 -8 4 -16 2 -23 -8 -23 -7 0 -14 -7 -14 -14 0 -11 5 -12 18 -5
10 5 33 8 51 8 18 -1 25 -3 16 -6 -10 -2 -18 -9 -18 -14 0 -6 -6 -9 -12 -8
-27 5 -78 -13 -78 -28 0 -9 6 -13 15 -9 22 8 18 -7 -5 -22 -17 -11 -20 -10
-20 7 0 28 -40 50 -70 39 -28 -10 -21 0 12 16 15 8 23 20 23 36 -1 14 3 28 7
31 4 3 1 14 -7 25 -14 19 -14 19 -16 -1 -1 -11 -1 -26 0 -32 1 -7 -3 -13 -9
-13 -18 0 -12 57 8 66 9 4 21 6 25 5 5 -1 5 8 2 20 -5 15 -4 19 5 14 6 -4 20
1 30 10 10 9 24 14 30 10 6 -3 10 -3 9 2 -3 15 1 19 21 20 11 1 22 -2 25 -8z"/>
<path d="M9131 720 c-8 -4 -10 -13 -7 -19 4 -6 1 -11 -6 -11 -7 -1 -2 -7 11
-14 14 -8 30 -12 36 -10 6 3 11 -5 12 -16 1 -11 -3 -20 -8 -20 -6 0 -8 4 -5 9
8 13 -18 21 -35 10 -13 -8 -5 -13 15 -10 5 1 3 -5 -4 -14 -8 -9 -16 -12 -19
-6 -4 5 -23 9 -43 8 -27 -1 -34 -5 -26 -14 5 -6 16 -9 24 -6 8 3 14 2 13 -3
-3 -19 1 -34 11 -34 6 0 10 7 10 16 0 8 -4 12 -10 9 -6 -3 -7 1 -3 10 3 9 9
12 12 7 3 -5 17 -11 31 -14 14 -3 34 -9 45 -13 20 -7 20 -7 0 12 -11 10 -18
17 -16 15 2 -1 12 5 21 13 15 13 16 12 16 -13 -1 -27 -25 -79 -26 -54 0 6 -5
12 -11 12 -6 0 -9 -7 -6 -14 4 -11 1 -13 -10 -9 -10 4 -14 2 -10 -4 5 -7 -1
-9 -15 -6 -19 4 -20 3 -8 -6 8 -6 11 -11 7 -11 -5 0 -1 -7 8 -16 13 -13 21
-14 40 -6 18 8 25 8 28 -1 3 -9 8 -9 18 1 7 6 17 12 22 12 11 0 -14 -25 -33
-33 -12 -4 12 -7 65 -7 3 0 5 3 4 6 0 4 5 10 11 14 9 6 9 13 2 26 -8 14 -20
18 -51 15 -31 -2 -41 1 -41 13 0 8 5 18 12 22 7 4 8 3 4 -5 -11 -17 17 -23 50
-10 25 11 26 13 9 17 -11 2 -26 9 -34 16 -12 9 -13 8 -6 -3 5 -10 4 -12 -3 -7
-7 4 -12 14 -12 22 0 16 26 19 35 4 4 -6 11 -8 16 -5 5 4 9 1 9 -5 0 -6 5 -8
10 -5 8 5 7 11 -1 21 -8 10 -8 14 0 14 6 0 18 -15 26 -32 12 -26 13 -29 1 -15
-9 12 -16 14 -21 8 -3 -6 -3 -11 1 -11 3 0 1 -6 -5 -14 -8 -9 -8 -16 -2 -20 5
-4 13 -1 16 5 4 5 13 8 21 5 7 -3 16 -1 19 4 3 5 12 7 20 4 8 -4 12 -10 9 -15
-3 -5 0 -9 5 -9 6 0 11 7 11 15 0 8 -4 15 -10 15 -5 0 -10 5 -10 11 0 6 6 9
14 6 8 -3 23 8 36 25 20 27 20 30 3 26 -10 -2 -18 -10 -18 -18 0 -8 -7 -15
-15 -15 -8 0 -21 -7 -28 -15 -12 -13 -13 -13 -8 2 2 9 -2 22 -9 28 -8 7 -13
16 -10 20 10 17 -6 36 -32 38 -25 2 -26 1 -8 -11 12 -10 14 -16 7 -21 -7 -4
-16 -5 -21 -2 -5 3 -11 -1 -15 -9 -5 -15 -36 -10 -36 6 0 4 6 6 14 3 7 -3 17
3 20 13 5 13 4 15 -4 7 -12 -12 -57 -7 -66 7 -3 5 0 9 6 9 7 0 10 5 8 12 -6
16 -48 21 -48 5 0 -8 -3 -7 -10 3 -6 9 -5 17 2 21 6 4 6 9 1 12 -5 3 -15 2
-22 -3z"/>
<path d="M5470 700 c0 -17 41 -33 53 -21 16 16 30 13 23 -4 -4 -10 3 -17 22
-21 15 -3 37 -10 50 -15 13 -5 27 -7 30 -5 4 2 13 -2 20 -10 8 -9 9 -14 2 -14
-6 0 -8 -4 -5 -10 6 -9 -9 -12 -82 -13 -30 -1 -39 -37 -10 -37 16 0 18 3 9 9
-16 10 30 21 89 21 28 0 39 -4 39 -15 0 -12 15 -15 71 -15 38 0 68 -4 65 -8
-2 -4 4 -9 15 -9 10 -1 19 3 19 8 0 6 5 7 10 4 6 -3 10 0 10 8 0 7 -6 14 -14
14 -8 0 -15 -3 -14 -6 2 -18 -3 -24 -11 -12 -6 9 -30 14 -75 15 -36 1 -66 5
-66 10 0 4 15 6 34 4 24 -3 32 0 29 8 -3 8 9 14 34 17 34 3 33 4 -12 6 -48 2
-49 2 -25 16 23 12 19 13 -40 8 -57 -5 -63 -4 -53 9 14 16 10 17 -56 19 -19 1
-47 10 -62 21 -15 12 -34 18 -43 15 -8 -3 -18 -2 -21 3 -8 13 -35 13 -35 0z"/>
<path d="M8638 695 c-2 -2 -30 -5 -63 -5 -71 -2 -95 -8 -95 -22 0 -5 7 -7 16
-4 10 4 13 2 8 -6 -5 -7 1 -9 19 -6 16 3 24 1 20 -5 -3 -5 3 -6 15 -3 11 4 48
9 81 11 50 3 58 1 48 -10 -6 -7 -16 -11 -21 -8 -4 3 -13 -1 -18 -8 -8 -11 -8
-10 -4 4 5 14 2 17 -12 13 -9 -3 -31 -8 -47 -10 -89 -13 -118 -25 -64 -27 32
-1 32 -2 9 -9 -23 -8 -23 -8 8 -9 18 -1 42 4 54 10 18 10 33 13 106 24 13 2
32 11 41 19 10 9 21 13 24 9 4 -3 7 -1 7 6 0 6 6 11 13 10 6 -1 26 -1 44 0 25
1 31 5 26 17 -3 9 -9 12 -12 7 -7 -11 -64 -16 -57 -5 2 4 -4 9 -15 9 -11 1
-17 -2 -14 -7 3 -5 1 -12 -5 -15 -6 -4 -9 -1 -8 7 2 9 -12 13 -49 14 -28 1
-53 0 -55 -1z"/>
<path d="M19058 593 c6 -3 9 -9 6 -15 -5 -7 2 -9 19 -6 15 3 24 1 21 -3 -3 -5
14 -10 38 -11 42 -1 42 -1 8 -6 l-35 -5 30 -7 c30 -8 30 -8 -7 -9 -36 -1 -46
-9 -31 -24 3 -4 13 -1 21 6 13 9 14 9 8 0 -10 -18 19 -16 38 2 8 8 21 15 28
15 10 0 9 -3 -2 -10 -12 -8 -10 -10 10 -10 19 0 21 -3 12 -12 -7 -7 -12 -17
-12 -22 0 -6 5 -4 11 4 8 11 12 12 16 3 2 -7 16 -13 29 -13 13 0 24 -4 24 -10
0 -5 10 -10 23 -10 12 0 29 -5 37 -10 11 -8 8 -9 -11 -5 -34 8 -109 -12 -109
-29 0 -9 -16 -13 -54 -13 -39 0 -53 3 -49 12 2 7 13 11 23 8 10 -3 26 -1 35 5
25 13 -109 26 -134 12 -11 -5 -30 -10 -43 -10 -19 -1 -18 -3 11 -16 25 -10 36
-11 41 -3 10 15 45 7 45 -11 0 -11 11 -15 42 -14 23 0 40 -3 37 -7 -2 -4 0
-10 6 -14 5 -3 10 -1 10 6 0 6 8 9 20 6 11 -3 20 -1 20 4 0 5 17 9 38 10 20 0
31 3 25 6 -32 12 -7 23 52 23 39 0 65 -4 65 -11 0 -12 69 -43 78 -34 3 3 -3
12 -14 20 -18 14 -18 15 6 7 14 -5 61 -9 105 -10 91 -3 137 -10 131 -21 -3 -4
-19 -6 -37 -3 -18 3 -34 0 -39 -8 -6 -9 -13 -9 -28 -1 -11 6 -31 11 -44 10
-18 -1 -17 -3 10 -10 49 -15 39 -19 -35 -15 -46 3 -58 2 -38 -4 23 -6 25 -8
10 -10 -11 -2 -2 -6 20 -10 l40 -7 -37 -2 c-21 0 -38 -6 -38 -11 0 -6 11 -8
25 -4 15 4 25 2 25 -4 0 -6 -17 -14 -37 -17 -68 -12 -60 -15 19 -9 43 3 135 7
205 9 152 3 238 14 208 26 -16 6 -13 8 15 10 19 1 55 3 80 6 81 7 164 2 177
-11 4 -3 19 -6 34 -6 15 0 38 -4 52 -9 30 -12 58 2 40 20 -8 8 -17 9 -25 3 -7
-6 -31 -7 -53 -3 -22 3 -36 7 -31 8 5 0 2 8 -5 18 -13 15 -12 15 9 4 13 -7 26
-10 30 -7 3 3 0 6 -7 6 -7 0 -10 4 -7 9 3 5 -27 9 -67 8 -39 0 -83 3 -96 8
-18 5 -22 4 -16 -6 6 -11 5 -12 -6 -1 -7 6 -26 12 -42 12 -15 0 -26 4 -23 9 8
12 -23 23 -37 14 -6 -4 -57 -7 -113 -7 -56 -1 -97 2 -91 6 7 4 23 8 37 8 18 0
21 3 11 9 -7 5 -9 11 -5 13 5 3 2 3 -6 0 -39 -12 -60 -13 -60 -4 0 6 -18 10
-41 9 -28 -1 -45 4 -53 15 -7 9 -23 16 -36 15 -14 -1 -37 2 -51 6 -22 5 -28 3
-32 -13 -3 -11 -10 -20 -17 -20 -6 0 -8 5 -5 10 4 6 -19 10 -63 10 -76 0 -143
17 -121 31 7 4 19 4 25 -2 7 -6 21 -6 36 0 15 5 30 6 39 0 19 -12 49 -11 49 1
0 6 -13 10 -30 10 -17 0 -30 5 -30 13 0 9 -2 9 -9 -1 -8 -13 -49 -11 -72 4 -8
4 -9 3 -5 -4 4 -7 1 -12 -9 -12 -9 0 -13 5 -10 10 4 6 -5 10 -20 10 -20 0 -26
4 -22 14 4 9 -1 17 -11 19 -9 3 0 5 21 6 23 1 36 -3 32 -9 -3 -6 1 -7 9 -4 9
3 16 10 16 15 0 5 15 9 33 8 35 -3 77 8 77 19 0 4 -19 8 -42 9 -86 2 -107 6
-101 17 4 6 -1 5 -10 -3 -11 -9 -17 -10 -17 -2 0 6 -7 11 -15 11 -8 0 -15 -4
-15 -10 0 -5 -23 -10 -51 -10 -27 0 -48 3 -46 8 3 4 -21 8 -52 8 -31 1 -50 0
-43 -3z"/>
<path d="M8480 582 c0 -7 -7 -12 -16 -12 -27 0 -10 -23 20 -27 19 -3 33 2 42
14 12 17 13 16 7 -4 -3 -14 -13 -23 -24 -23 -11 0 -19 -4 -19 -9 0 -6 -18 -9
-40 -9 -22 0 -40 4 -40 9 0 5 15 7 33 4 29 -5 30 -5 12 8 -23 15 -139 11 -129
-4 3 -5 10 -6 16 -3 6 4 9 3 6 -2 -2 -5 7 -20 20 -34 14 -14 22 -20 19 -13 -5
7 10 13 45 18 29 4 58 11 65 17 11 9 85 4 104 -7 22 -14 -14 -37 -48 -31 -104
19 -106 19 -98 6 6 -10 2 -12 -13 -8 -12 4 -20 2 -17 -2 7 -11 -11 -22 -39
-25 -46 -5 -50 -8 -16 -14 19 -4 43 -4 52 1 9 4 32 8 50 8 18 0 40 4 47 9 10
6 23 5 35 -2 12 -6 29 -10 39 -8 9 1 17 -3 17 -9 0 -6 4 -9 9 -6 5 3 7 14 4
25 -3 14 1 18 19 17 13 -1 29 -5 36 -9 7 -5 12 -3 12 5 0 9 3 9 10 -2 7 -12
13 -13 28 -3 18 11 109 29 125 25 4 -1 17 3 29 9 16 9 22 8 29 -2 7 -11 9 -10
9 3 0 15 -7 17 -50 13 -27 -3 -60 -1 -72 3 -16 6 -34 3 -58 -10 -22 -11 -26
-16 -11 -12 16 4 21 3 17 -5 -10 -16 -23 -14 -57 11 -25 19 -33 20 -49 10 -13
-8 -20 -8 -20 -2 0 6 -10 15 -22 20 -20 7 -20 9 -4 9 16 1 17 3 5 18 -12 14
-12 16 0 8 8 -4 28 -8 45 -8 17 0 23 -2 13 -4 -9 -3 -15 -9 -11 -14 3 -5 10
-6 16 -3 6 4 17 -1 24 -10 7 -10 20 -16 30 -14 24 4 20 22 -7 28 -12 3 -25 12
-27 19 -3 10 0 11 9 5 20 -12 39 -14 39 -3 0 5 14 9 31 9 17 0 28 -4 24 -10
-3 -5 -2 -10 4 -10 5 0 18 -3 28 -6 15 -5 15 -4 3 5 -12 9 -10 11 12 11 14 0
34 3 44 7 14 5 16 3 10 -12 -4 -11 -4 -16 0 -12 4 4 13 2 19 -3 9 -7 17 -3 28
14 l16 24 -55 4 c-30 1 -65 0 -76 -5 -19 -7 -19 -6 -7 10 12 14 12 16 0 8 -21
-12 -75 -14 -119 -4 -20 4 -72 5 -115 0 -48 -4 -81 -3 -87 3 -7 7 -10 6 -10
-2z"/>
<path d="M2580 539 c0 -6 -7 -9 -15 -5 -8 3 -15 1 -15 -5 0 -6 -4 -7 -10 -4
-5 3 -10 1 -10 -5 0 -6 -5 -8 -10 -5 -6 4 -7 11 -4 17 4 6 -1 6 -14 -1 -14 -7
-18 -17 -15 -31 3 -12 0 -20 -7 -20 -7 0 -10 7 -6 15 3 8 0 15 -6 15 -7 0 -6
6 2 16 12 14 -9 14 -211 9 -123 -4 -239 -10 -256 -15 -26 -7 -33 -5 -33 6 0 8
-7 14 -15 14 -18 0 -20 -26 -2 -33 6 -3 -15 -6 -48 -6 -41 0 -55 2 -45 9 22
14 6 22 -22 11 -13 -5 -45 -7 -71 -4 -31 4 -47 2 -47 -6 0 -6 -5 -11 -11 -11
-5 0 -8 4 -5 9 8 12 -184 35 -196 23 -5 -5 18 -10 62 -11 39 -1 81 -6 93 -12
15 -6 -28 -8 -128 -5 -178 5 -160 0 65 -18 156 -13 160 -13 71 -15 -52 0 -92
-3 -90 -5 2 -2 51 -6 109 -9 63 -4 99 -3 90 3 -8 5 41 8 127 7 86 -1 133 -5
120 -10 -12 -5 -59 -7 -104 -5 -44 2 -79 0 -76 -4 2 -5 0 -8 -6 -8 -5 0 -11 5
-13 11 -3 9 -9 9 -25 0 -27 -14 -44 -15 -171 -6 -57 4 -115 13 -130 21 -31 16
-86 19 -77 4 4 -6 10 -8 15 -5 5 3 11 1 15 -5 3 -5 28 -12 55 -16 29 -4 47
-11 44 -16 -4 -6 13 -9 44 -7 27 2 48 0 45 -5 -3 -4 -43 -6 -89 -4 -48 3 -81
1 -77 -5 3 -5 -12 -7 -33 -6 -77 5 -169 -1 -155 -10 24 -16 418 5 440 22 12 9
13 9 7 0 -4 -7 -2 -13 3 -13 6 0 11 3 11 8 0 4 44 5 97 3 l98 -5 -70 -7 c-38
-4 -108 -11 -155 -14 -47 -4 -105 -11 -130 -15 l-45 -8 60 0 c33 -1 107 3 165
8 58 6 170 13 250 16 80 3 152 9 160 13 8 4 26 7 40 5 107 -8 330 -11 305 -4
-16 5 -86 12 -155 16 -69 3 -132 11 -140 16 -12 7 -10 8 5 4 31 -8 151 -10
164 -2 6 4 11 14 11 21 0 9 6 12 15 8 14 -5 14 -8 -2 -25 -18 -20 -17 -20 55
-16 39 3 72 2 72 -2 0 -5 7 -11 16 -14 13 -5 14 -4 6 7 -7 8 -9 17 -5 20 10
11 71 8 78 -3 3 -5 11 -10 16 -10 6 0 7 5 4 10 -3 6 0 10 7 10 9 0 9 3 -2 10
-12 7 -12 12 -3 21 7 7 15 10 18 7 11 -10 14 -48 4 -48 -6 0 -8 -4 -4 -9 3 -5
-5 -12 -17 -14 -17 -3 -14 -5 10 -6 29 -1 32 1 28 24 -3 14 0 25 5 25 5 0 9 7
9 15 0 8 -5 15 -10 15 -6 0 -15 10 -20 23 -5 12 -9 16 -9 10 -1 -7 -9 -13 -18
-13 -10 0 -25 -5 -33 -11 -12 -9 -11 -10 8 -6 12 3 22 2 22 -3 0 -11 -68 -18
-83 -8 -8 5 -4 8 11 8 12 0 21 3 20 8 -2 4 0 8 5 9 14 5 35 28 30 35 -2 4 -13
-1 -24 -11 -13 -12 -28 -17 -41 -13 l-22 5 22 8 c22 8 31 29 12 29 -5 0 -10
-5 -10 -11z"/>
<path d="M8104 541 c4 -5 -4 -7 -15 -4 -16 4 -20 2 -17 -8 3 -8 18 -14 34 -14
16 0 33 -6 37 -12 10 -15 9 -23 0 -24 -5 -1 -18 -5 -30 -10 -27 -10 -29 -6 -7
16 13 12 13 16 3 14 -8 -2 -24 3 -37 10 -13 7 -31 10 -40 6 -9 -4 -44 -9 -76
-12 -33 -3 -71 -12 -85 -21 -14 -9 -34 -15 -45 -14 -20 3 -20 3 -3 -10 15 -11
12 -13 -24 -15 -23 0 -45 -6 -49 -13 -10 -17 -15 -17 -34 -1 -9 8 -19 11 -23
7 -3 -3 0 -6 8 -6 10 -1 8 -5 -5 -15 -19 -15 -19 -15 2 -15 12 0 22 -5 22 -10
0 -9 -61 -6 -97 5 -15 5 -13 -16 2 -27 12 -9 129 -1 174 12 19 5 29 5 26 -1
-4 -5 4 -9 17 -9 13 0 29 -5 36 -12 9 -9 12 -9 12 0 0 7 9 12 19 12 23 0 37
16 19 23 -7 2 -10 8 -5 12 9 11 17 3 22 -24 3 -16 -1 -21 -18 -22 -37 -1 31
-19 85 -22 34 -2 49 1 53 11 4 10 9 11 18 4 6 -5 46 -13 87 -16 99 -9 109 -9
150 -2 19 3 59 6 88 7 34 1 49 5 40 10 -7 5 -8 9 -2 9 5 0 14 -4 20 -9 5 -6
19 -4 34 4 l25 14 -28 1 c-16 0 -26 3 -24 8 3 4 -19 5 -49 4 -33 -3 -60 1 -69
8 -11 9 -15 10 -15 1 0 -7 -5 -9 -12 -4 -7 4 -47 7 -88 5 -43 -1 -81 3 -90 9
-12 9 -12 10 4 5 16 -6 17 -4 5 10 -11 14 -11 19 6 33 26 20 25 36 0 55 -11 9
-15 16 -10 16 11 1 -35 29 -48 30 -5 0 -6 -4 -3 -9z"/>
<path d="M0 367 c0 -14 27 -19 98 -19 27 -1 30 -3 21 -15 -7 -8 -18 -12 -25
-9 -7 3 -15 -2 -18 -10 -3 -8 -9 -14 -13 -13 -4 1 -21 1 -38 -1 -26 -1 -27 -3
-10 -9 11 -5 31 -4 45 0 39 13 127 20 110 9 -8 -5 -25 -10 -37 -10 -12 0 -29
-3 -39 -7 -16 -6 -16 -7 2 -14 16 -6 14 -8 -11 -10 -18 -1 -6 -5 30 -10 33 -4
74 -10 90 -12 17 -2 22 -2 13 0 -10 2 -18 9 -18 15 0 7 16 8 48 3 62 -11 67
-10 132 9 65 19 275 32 266 17 -4 -6 -26 -8 -51 -4 -30 3 -45 1 -45 -6 0 -10
39 -17 65 -11 11 2 26 1 70 -4 120 -13 152 -18 170 -26 11 -5 41 -11 67 -14
37 -4 47 -2 52 11 10 25 -6 30 -120 37 -109 7 -137 13 -129 26 5 8 -25 22 -41
19 -5 -1 -12 0 -16 1 -5 1 -12 4 -18 5 -5 1 -11 3 -12 4 -3 2 -49 6 -160 12
-26 1 -45 6 -42 11 6 10 -10 11 -19 1 -10 -9 -67 -10 -67 0 0 4 -4 7 -10 7 -5
0 -10 -6 -10 -13 0 -8 -6 -14 -12 -14 -7 -1 -34 -5 -60 -11 -26 -5 -45 -5 -42
-1 3 5 15 9 27 9 12 0 29 5 37 10 12 8 11 10 -6 10 -12 0 -25 7 -28 16 -5 13
-15 15 -51 11 -25 -4 -47 -2 -50 3 -10 16 -145 13 -145 -3z"/>
<path d="M2040 340 c0 -6 12 -10 28 -10 21 0 24 -2 12 -10 -11 -7 -7 -10 18
-10 17 0 32 5 32 10 0 6 8 5 20 -2 18 -12 19 -13 2 -20 -9 -5 -1 -5 18 -1 19
3 42 5 50 4 26 -4 103 -8 163 -10 32 0 56 -4 53 -9 -5 -9 70 -13 104 -5 24 5
24 6 5 14 -15 7 -11 8 15 4 27 -4 32 -2 20 6 -12 9 -11 10 6 6 12 -2 28 -1 35
4 11 6 -28 6 -109 0 -7 -1 -10 -6 -6 -13 4 -7 3 -8 -5 -4 -9 6 -9 11 0 23 11
12 9 13 -12 8 -70 -16 -125 -22 -143 -15 -12 4 -38 6 -58 5 -25 -2 -38 1 -42
11 -4 9 -19 14 -43 13 -21 0 -66 2 -100 5 -38 3 -63 1 -63 -4z"/>
<path d="M1560 320 c0 -7 -7 -10 -15 -7 -8 4 -17 2 -19 -2 -3 -5 -18 -7 -33
-5 -28 4 -28 4 -3 -5 14 -5 50 -10 80 -10 39 -1 51 -4 40 -11 -9 -6 -10 -10
-3 -10 6 0 19 7 28 16 15 15 16 14 12 -12 -3 -24 -8 -28 -28 -25 -53 7 -215 5
-233 -3 -14 -7 -17 -6 -12 2 10 17 -20 15 -36 -1 -9 -10 -21 -12 -48 -5 -52
14 -173 20 -189 9 -17 -11 -6 -31 17 -31 15 0 15 2 2 10 -13 8 -13 10 1 10 9
0 20 -7 23 -16 4 -9 13 -14 22 -10 8 3 12 2 9 -4 -3 -6 -19 -10 -35 -10 -16 0
-32 -5 -36 -12 -9 -14 73 -3 92 13 7 6 43 9 81 8 45 -2 86 3 122 15 57 20 174
17 195 -4 7 -7 4 -10 -8 -10 -9 0 -15 -4 -12 -9 5 -8 -105 -4 -113 5 -2 2 15
4 38 4 26 0 40 4 36 10 -8 13 -95 13 -115 0 -12 -8 -12 -10 5 -10 11 0 29 -7
39 -15 11 -8 36 -15 55 -16 76 -1 -4 -18 -99 -20 -83 -3 -87 -3 -30 -7 82 -4
192 7 185 19 -7 11 12 12 200 10 77 0 154 4 170 9 28 9 27 9 -15 8 -88 -2
-294 5 -257 9 20 2 37 9 37 14 0 6 -5 7 -12 3 -7 -5 -8 -3 -4 5 6 9 12 9 24
-2 25 -22 247 -24 255 -2 7 18 -4 20 -20 4 -6 -6 -21 -8 -33 -4 -42 13 1 24
93 24 49 0 92 2 95 5 3 3 -8 6 -24 7 -29 1 -29 1 -4 9 25 8 25 8 -5 10 -16 1
-39 3 -50 5 -11 2 -42 5 -70 6 -27 1 -56 7 -63 12 -9 7 -16 7 -20 1 -8 -11
-62 -13 -62 -1 0 4 8 7 18 7 14 0 15 2 2 10 -9 6 -17 5 -22 -2 -4 -8 -35 -11
-90 -8 -46 1 -94 3 -108 2 -14 0 -31 4 -37 10 -9 7 -13 7 -13 -2z"/>
</g>
</svg>
